<svg width="688" height="585" viewBox="0 0 688 585" fill="none" xmlns="http://www.w3.org/2000/svg">
<path d="M687.82 461.195H0" stroke="#263238" stroke-miterlimit="10"/>
<path d="M234.896 251.103H226.879V360.996H234.896V251.103Z" fill="#ABABAB" stroke="#263238" stroke-miterlimit="10"/>
<path d="M255.524 251.103H247.507V360.996H255.524V251.103Z" fill="#ABABAB" stroke="#263238" stroke-miterlimit="10"/>
<path d="M276.137 251.103H268.12V360.996H276.137V251.103Z" fill="#ABABAB" stroke="#263238" stroke-miterlimit="10"/>
<path d="M296.75 251.103H288.733V360.996H296.75V251.103Z" fill="#ABABAB" stroke="#263238" stroke-miterlimit="10"/>
<path d="M317.363 251.103H309.346V360.996H317.363V251.103Z" fill="#ABABAB" stroke="#263238" stroke-miterlimit="10"/>
<path d="M337.991 251.103H329.974V360.996H337.991V251.103Z" fill="#ABABAB" stroke="#263238" stroke-miterlimit="10"/>
<path d="M358.604 251.103H350.587V360.996H358.604V251.103Z" fill="#ABABAB" stroke="#263238" stroke-miterlimit="10"/>
<path d="M379.217 251.103H371.2V360.996H379.217V251.103Z" fill="#ABABAB" stroke="#263238" stroke-miterlimit="10"/>
<path d="M399.846 251.103H391.829V360.996H399.846V251.103Z" fill="#ABABAB" stroke="#263238" stroke-miterlimit="10"/>
<path d="M420.458 251.103H412.441V360.996H420.458V251.103Z" fill="#ABABAB" stroke="#263238" stroke-miterlimit="10"/>
<path d="M441.071 251.103H433.054V360.996H441.071V251.103Z" fill="#ABABAB" stroke="#263238" stroke-miterlimit="10"/>
<path d="M461.7 251.103H453.683V360.996H461.7V251.103Z" fill="#ABABAB" stroke="#263238" stroke-miterlimit="10"/>
<path d="M482.313 251.103H474.296V360.996H482.313V251.103Z" fill="#ABABAB" stroke="#263238" stroke-miterlimit="10"/>
<path d="M502.925 251.103H494.908V360.996H502.925V251.103Z" fill="#ABABAB" stroke="#263238" stroke-miterlimit="10"/>
<path d="M523.538 251.103H515.521V360.996H523.538V251.103Z" fill="#ABABAB" stroke="#263238" stroke-miterlimit="10"/>
<path d="M541.87 241.518H206.836V256.633H541.87V241.518Z" fill="#ABABAB" stroke="#263238" stroke-miterlimit="10"/>
<path d="M215.534 233.358H202.923V359.681H215.534V233.358Z" fill="#ABABAB" stroke="#263238" stroke-miterlimit="10"/>
<path d="M547.7 233.358H535.088V359.681H547.7V233.358Z" fill="#ABABAB" stroke="#263238" stroke-miterlimit="10"/>
<path d="M145.505 469.225L127.363 562.609C133.199 564.883 138.883 567.529 144.38 570.53C155.835 576.519 191.705 576.868 219.527 572.448C247.349 568.027 265.918 565.46 294.278 575.949C322.639 586.438 362.502 585.455 380.5 579.942C398.499 574.428 428.032 581.447 447.615 581.447C467.198 581.447 508.186 579.45 528.925 571.449C549.665 563.448 567.663 566.459 585.123 570.451C602.583 574.444 627.141 571.449 634.239 567.948C641.337 564.446 644.601 562.466 644.601 562.466L620.059 446.632C620.059 446.632 614.355 380.769 606.433 365.654C595.834 345.342 578.073 339.306 550.235 338.308C522.398 337.309 486.939 343.061 437.284 350.127C387.63 357.193 320.5 353.708 257.204 339.369C201.243 326.694 173.041 351.315 165.199 365.654C156.025 382.401 145.505 469.225 145.505 469.225Z" fill="#FFC100" stroke="#263238" stroke-miterlimit="10"/>
<path d="M216.929 501.626L208.42 399.385" stroke="#263238" stroke-miterlimit="10"/>
<path d="M219.654 534.28L218.355 518.563" stroke="#263238" stroke-miterlimit="10"/>
<path d="M527.674 400.51L519.799 469.082" stroke="#263238" stroke-miterlimit="10"/>
<path d="M186.794 391.622C186.794 391.622 180.234 390.133 178.602 402.111C176.97 414.088 162.759 476.054 162.759 476.054" stroke="#263238" stroke-miterlimit="10"/>
<path d="M179.109 474.691L177.509 490.551" stroke="#263238" stroke-miterlimit="10"/>
<path d="M186.794 398.118L180.139 464.456" stroke="#263238" stroke-miterlimit="10"/>
<path d="M576.33 389.198C576.33 389.198 580.148 418.16 584.521 454.633" stroke="#263238" stroke-miterlimit="10"/>
<path d="M569.992 465.708L569.85 477.052" stroke="#263238" stroke-miterlimit="10"/>
<path d="M570.943 390.624L570.151 453.365" stroke="#263238" stroke-miterlimit="10"/>
<path d="M238.143 4.31972C237.871 4.12202 237.56 3.98526 237.23 3.91871C236.9 3.85217 236.559 3.8574 236.232 3.93405C235.904 4.01071 235.597 4.157 235.331 4.36297C235.065 4.56894 234.846 4.82976 234.69 5.12774C233.105 7.37757 226.688 14.745 227.322 16.6621C227.956 18.5792 236.29 26.913 236.29 26.913L246.873 14.4281L240.71 5.508L238.143 4.31972Z" fill="white" stroke="#263238" stroke-miterlimit="10"/>
<path d="M317.299 128.044C317.299 128.044 308.902 111.994 299.792 101.791C290.682 91.5875 248.363 49.2686 246.176 46.7178C243.99 44.1669 241.423 38.685 241.423 37.2115C241.423 35.738 254.177 21.1617 254.177 17.882C254.177 14.6024 242.881 6.94979 240.694 5.49216C239.953 4.88568 239.07 4.47687 238.128 4.30387C237.89 4.16128 236.908 3.89193 235.165 7.36173C233.153 11.3861 229.461 13.6993 231.141 15.759C232.82 17.8187 236.686 22.2549 236.686 22.2549L237.209 21.7479L236.686 22.2549C233.755 24.8216 225.009 33.5674 225.738 40.1268C225.851 41.9044 226.56 43.592 227.75 44.9173C228.94 46.2425 230.542 47.128 232.297 47.4308C232.297 47.4308 280.811 118.902 286.641 126.65C292.472 134.397 299.776 141.971 300.505 143.064C301.234 144.157 319.834 165.673 319.834 165.673L330.402 142.335L317.299 128.044Z" fill="white" stroke="#263238" stroke-miterlimit="10"/>
<path d="M231.949 29.5431C233.54 26.3172 234.645 22.8735 235.228 19.3238C236.337 13.1289 242.532 7.29837 245.083 5.84074C247.634 4.38311 247.27 6.93397 245.447 9.84923C244.092 12.1071 243.108 14.5677 242.532 17.1374C242.168 18.595 242.532 24.8058 241.803 26.2634" fill="white"/>
<path d="M231.949 29.5431C233.54 26.3172 234.645 22.8735 235.228 19.3238C236.337 13.1289 242.532 7.29837 245.083 5.84074C247.634 4.38311 247.27 6.93397 245.447 9.84923C244.092 12.1071 243.108 14.5677 242.532 17.1374C242.168 18.595 242.532 24.8058 241.803 26.2634" stroke="#263238" stroke-miterlimit="10"/>
<path d="M499.234 1.75301C499.234 1.75301 503.084 0.295384 504.969 1.43614C506.855 2.57689 513.287 10.9424 513.287 12.4001C513.287 13.8577 509.516 14.6657 509.516 14.6657C509.516 14.6657 513.287 17.6919 511.782 18.8327C510.277 19.9734 502.704 21.4786 502.704 21.4786L495.526 7.86873L499.234 1.75301Z" fill="white" stroke="#263238" stroke-miterlimit="10"/>
<path d="M517.882 34.6765C517.375 28.0854 507.14 21.13 503.797 19.1654C502.164 18.0125 500.863 16.4496 500.026 14.634L501.468 15.2678L502.751 9.26296C502.751 9.26296 507.045 12.7011 508.756 10.9741C510.467 9.24712 505.762 6.22095 504.003 4.12957C502.76 2.75127 501.082 1.83993 499.25 1.54703L499.155 1.75299C498.505 1.75299 497.57 2.4818 496.651 3.43243C494.782 5.27032 485.101 14.9034 485.703 18.1355C486.305 21.3677 501.547 33.298 501.864 34.7398C502.181 36.1816 500.644 42.028 498.965 44.9433C497.285 47.8585 459.086 102.203 452.035 113.927C444.985 125.652 439.74 143.001 439.74 143.001L429.569 159.462L444.319 180.424C444.319 180.424 458.579 155.818 459.086 154.598C459.593 153.378 465.344 144.506 469.638 135.887C473.931 127.268 511.37 44.5313 511.37 44.5313C511.37 44.5313 518.389 41.2675 517.882 34.6765Z" fill="white" stroke="#263238" stroke-miterlimit="10"/>
<path d="M509.786 25.4395C507.622 22.5716 505.892 19.4004 504.652 16.0283C502.434 10.1344 495.241 5.55555 492.469 4.60492C489.696 3.65429 490.52 6.09423 492.865 8.6134C494.634 10.5903 496.069 12.8435 497.111 15.2837C497.745 16.6462 498.553 22.8095 499.535 24.1087" fill="white"/>
<path d="M509.786 25.4395C507.622 22.5716 505.892 19.4004 504.652 16.0283C502.434 10.1344 495.241 5.55555 492.469 4.60492C489.696 3.65429 490.52 6.09423 492.865 8.6134C494.634 10.5903 496.069 12.8435 497.111 15.2837C497.745 16.6462 498.553 22.8095 499.535 24.1087" stroke="#263238" stroke-miterlimit="10"/>
<path d="M432.151 202.082L444.905 184.21L430.646 156.119H381.847L377.094 165.626C377.094 165.626 366.875 165.626 365.053 164.897C363.23 164.168 332.969 143.381 332.969 143.381L319.105 172.549L330.751 192.592L340.257 258.613L337.088 271.954C337.088 271.954 319.929 324.238 320.722 328.104C321.514 331.97 334.759 346.134 358.145 349.256C381.53 352.377 418.193 346.911 423.659 344.502C429.125 342.094 441.594 343.726 449.389 332.033C457.184 320.341 429.695 258.502 429.695 258.502L432.151 202.082Z" fill="white" stroke="#263238" stroke-miterlimit="10"/>
<path d="M426.701 161.237L444.208 199.531L451.148 191.863L434.813 151.556L426.701 161.237Z" fill="#FFC100" stroke="#263238" stroke-miterlimit="10"/>
<path d="M418.779 88.3553C418.779 88.3553 406.991 79.5937 393.429 81.0989C379.866 82.604 349.89 105.894 348.385 110.727C346.88 115.559 353.819 114.355 353.819 114.355C353.819 114.355 344.757 120.407 347.482 125.557C350.207 130.706 353.233 129.787 353.233 129.787C353.233 129.787 344.155 131.593 348.48 140.672C352.805 149.75 358.145 147.326 358.145 147.326C358.145 147.326 353.914 161.839 359.729 163.946C365.544 166.053 369.394 159.415 369.394 159.415C369.394 159.415 371.818 164.865 374.844 164.865C376.933 164.669 378.872 163.697 380.278 162.14L389.357 152.459C389.357 152.459 402.666 168.493 408.702 168.493C414.739 168.493 422.613 158.211 428.665 152.158C434.718 146.106 435.621 143.397 435.621 143.397L438.647 133.716C438.647 133.716 438.948 146.391 442.877 145.504C444.666 145.039 446.242 143.976 447.343 142.492C448.444 141.007 449.004 139.191 448.93 137.344C448.659 133.584 448.13 129.846 447.345 126.159C447.345 126.159 452.495 137.947 456.424 133.716C460.353 129.486 460.654 125.24 458.23 121.311C455.806 117.381 446.141 108.921 446.141 108.921C446.141 108.921 456.424 107.099 452.796 99.2401C449.167 91.3815 428 89.8764 428 89.8764C428 89.8764 434.338 75.0624 427.398 78.3738C420.458 81.6851 418.177 81.0989 418.779 88.3553Z" fill="#263238" stroke="#263238" stroke-miterlimit="10"/>
<path d="M385.523 130.088C385.523 130.088 386.125 131.593 389.452 127.363C392.779 123.133 399.735 126.159 399.133 117.08C398.531 108.002 410.318 104.088 420.601 106.497C430.884 108.905 440.849 121.31 441.768 129.486C442.687 137.661 434.813 148.229 434.813 151.556C434.813 154.884 435.415 158.512 432.69 163.043C429.965 167.574 418.177 175.433 412.093 175.718C406.009 176.003 400.004 171.472 400.004 171.472C400.004 171.472 396.677 181.454 396.677 182.674C396.677 183.894 399.703 188.409 390.624 191.736C381.546 195.063 374.305 189.312 373.085 182.357C372.329 177.64 371.926 172.874 371.881 168.097C371.881 168.097 375.509 165.388 378.837 153.838C380.78 147.458 381.898 140.856 382.164 134.192L385.523 130.088Z" fill="white" stroke="#263238" stroke-miterlimit="10"/>
<path d="M389.452 133.415C389.452 133.415 385.523 122.53 380.991 125.858C376.46 129.185 376.745 137.947 378.868 140.973C380.991 143.999 384.921 142.177 384.921 142.177" stroke="#263238" stroke-miterlimit="10"/>
<path d="M408.797 127.965C408.797 127.965 416.054 124.638 422.106 129.549" stroke="#263238" stroke-miterlimit="10"/>
<path d="M437.221 140.973C437.217 139.372 436.58 137.837 435.449 136.703C434.319 135.57 432.786 134.929 431.185 134.92" stroke="#263238" stroke-miterlimit="10"/>
<path d="M429.664 137.281C429.664 137.281 426.938 140.006 427.255 142.113C427.572 144.221 428.46 152.095 428.46 152.095L420.538 153.299" stroke="#263238" stroke-miterlimit="10"/>
<path d="M422.106 160.318C422.106 160.318 414.549 159.114 411.824 156.389C410.077 154.348 409.018 151.809 408.797 149.132" stroke="#263238" stroke-miterlimit="10"/>
<path d="M409.97 134.92C409.97 134.92 413.899 139.151 419.032 137.344" stroke="#263238" stroke-miterlimit="10"/>
<path d="M429.363 142.779C429.69 143.852 430.387 144.775 431.329 145.384C432.271 145.993 433.399 146.248 434.512 146.106" stroke="#263238" stroke-miterlimit="10"/>
<path d="M400.036 171.504L390.355 163.344L396.708 182.689L400.036 171.504Z" fill="#263238" stroke="#263238" stroke-miterlimit="10"/>
<path d="M329.325 136.426L313.655 178.38L320.943 184.939L337.722 141.543L329.325 136.426Z" fill="#FFC100" stroke="#263238" stroke-miterlimit="10"/>
<path d="M371.945 168.177C368.14 177.636 368.044 188.182 371.675 197.709" stroke="#263238" stroke-miterlimit="10"/>
<path d="M403.727 178.016C405.799 186.627 405.162 195.668 401.905 203.904" stroke="#263238" stroke-miterlimit="10"/>
<path d="M365.068 164.881C361.952 171.255 360.214 178.213 359.967 185.304" stroke="#263238" stroke-miterlimit="10"/>
<path d="M507.679 290.174C507.679 290.174 492.152 312.149 480.744 325.252C469.337 338.355 453.968 347.703 427.445 352.424C400.923 357.146 348.005 352.218 328.533 347.877C309.06 343.536 283.013 329.197 283.013 329.197L327.582 302.992C327.582 302.992 368.633 330.94 440.263 302.12C440.279 302.057 492.104 269.482 507.679 290.174Z" fill="#6B6B6B" stroke="#263238" stroke-miterlimit="10"/>
<path d="M345.01 296.876C345.01 296.876 373.196 303.578 394.791 305.606" stroke="#263238" stroke-miterlimit="10"/>
<path d="M414.818 294.626C402.338 297.965 389.408 299.313 376.508 298.619" stroke="#263238" stroke-miterlimit="10"/>
<path d="M430.662 289.017C428.394 290.086 426.072 291.038 423.706 291.869" stroke="#263238" stroke-miterlimit="10"/>
<path d="M389.278 335.329C389.278 335.329 344.123 332.651 327.677 311.928C311.231 291.204 270.069 261.132 256.808 266.582C243.546 272.033 237.795 278.402 250.391 306.018C262.987 333.634 341.192 346.293 358.604 350.175C376.016 354.056 417.353 354.04 427.493 352.488C437.633 350.935 463.363 350.143 466.485 339.226C469.606 328.31 464.9 323.636 451.671 323.636C438.441 323.636 429.838 331.431 417.353 332.984C408.057 334.389 398.678 335.172 389.278 335.329V335.329Z" fill="white" stroke="#263238" stroke-miterlimit="10"/>
<path d="M368.221 339.163C369.865 337.345 371.15 335.232 372.008 332.936C357.447 330.148 337.468 324.207 327.645 311.864C311.184 291.14 270.037 261.069 256.776 266.519C243.515 271.969 237.763 278.339 250.359 305.954C261.592 330.497 324.524 343.219 350.65 348.479C356.766 347.022 363.706 344.297 368.221 339.163Z" fill="#6B6B6B" stroke="#263238" stroke-miterlimit="10"/>
<path d="M451.671 323.573C438.409 323.573 429.838 331.368 417.353 332.921C408.059 334.347 398.679 335.151 389.278 335.329C389.278 335.329 396.534 344.043 393.46 353.312C408.1 353.692 422.138 353.312 427.493 352.488C437.633 350.903 463.363 350.143 466.485 339.226C469.606 328.31 464.932 323.573 451.671 323.573Z" fill="white" stroke="#263238" stroke-miterlimit="10"/>
<path d="M372.753 334.204C372.753 334.204 417.353 326.694 431.486 304.338C445.618 281.983 483.311 247.633 497.079 251.642C510.847 255.65 517.296 261.338 507.679 290.174C498.061 319.01 421.726 339.955 404.836 345.627C387.947 351.299 353.09 353.882 342.839 353.423C332.589 352.963 300.616 352.963 296.338 342.443C292.06 331.922 296.338 330.639 309.457 329.229C322.575 327.819 332.002 334.632 344.582 334.838C353.976 335.252 363.387 335.041 372.753 334.204Z" fill="white" stroke="#263238" stroke-miterlimit="10"/>
<path d="M394.126 335.82C392.294 334.191 390.789 332.228 389.69 330.037C403.87 325.712 423.104 317.663 431.517 304.338C445.65 281.967 483.342 247.633 497.111 251.642C510.879 255.65 517.327 261.338 507.71 290.174C499.17 315.778 437.997 335.17 412.568 343.203C406.326 342.411 399.133 340.446 394.126 335.82Z" fill="#6B6B6B" stroke="#263238" stroke-miterlimit="10"/>
<path d="M309.457 329.276C322.639 327.851 332.002 334.679 344.582 334.885C353.977 335.284 363.388 335.057 372.753 334.204C372.753 334.204 366.415 343.71 370.519 352.535C361.353 353.846 352.073 354.159 342.839 353.47C332.589 352.995 300.616 353.011 296.338 342.49C292.06 331.97 296.274 330.687 309.457 329.276Z" fill="white" stroke="#263238" stroke-miterlimit="10"/>
<path d="M625.446 353.327C617.651 335.487 602.076 325.981 594.281 323.604C594.281 318.487 558.395 306.287 543.581 296.511C528.767 286.736 534.217 264.127 505.112 251.103C476.593 238.333 441.23 272.302 439.867 273.633C437.791 275.645 411 269.957 406.405 269.846C385.759 269.376 365.12 271.048 344.82 274.837C338.942 275.93 313.956 285.072 309.029 282.062L272.128 259.627C266.864 257.272 261.055 256.403 255.332 257.115C249.609 257.827 244.191 260.093 239.664 263.667C223.472 276.437 201.639 302.025 196.886 302.801C189.741 303.99 163.123 340.24 159.225 344.407C155.328 348.574 127.474 361.043 128.124 371.77C128.774 382.496 135.872 403.838 135.872 403.838C135.872 403.838 106.671 443.669 115.75 451.369C124.828 459.069 147.564 469.193 147.564 469.193C147.564 469.193 159.241 407.973 166.387 397.278C173.532 386.584 214.425 382.417 224.819 381.815C235.212 381.213 302.881 394.854 341.667 399.053C402.048 405.596 455.933 399.053 509.802 387.17C563.671 375.287 584.933 382.417 591.239 385.966C602.425 392.303 611.725 409.161 611.725 409.161L622.119 446.6C622.119 446.6 640.291 437.696 644.839 433.529C649.386 429.362 633.178 371.152 625.446 353.327Z" fill="white" stroke="#263238" stroke-miterlimit="10"/>
<path d="M434.544 281.175C434.544 281.175 399.434 296.813 364.561 299.11" stroke="#263238" stroke-miterlimit="10"/>
<path d="M475.215 314.019C487.763 308.917 498.156 304.513 498.156 304.513" stroke="#263238" stroke-miterlimit="10"/>
<path d="M278.086 309.979L317.695 308.188C317.695 308.188 425.433 331.384 432.595 330.195C435.954 329.625 450.625 323.953 465.249 318.091" stroke="#263238" stroke-miterlimit="10"/>
<path d="M552.564 326.678C558.315 325.411 561.722 324.793 561.722 324.793" stroke="#263238" stroke-miterlimit="10"/>
<path d="M321.72 358.477C331.036 359.586 343.616 361.012 360.521 362.834C415.705 368.775 444.272 364.608 481.932 348.574C501.683 340.443 522.048 333.895 542.836 328.991" stroke="#263238" stroke-miterlimit="10"/>
<path d="M296.259 355.102C296.259 355.102 298.16 355.482 305.496 356.449" stroke="#263238" stroke-miterlimit="10"/>
<path d="M159.273 344.407C159.273 344.407 141.1 374.13 138.502 378.281C135.903 382.433 140.45 390.18 146.297 393.143" stroke="#263238" stroke-miterlimit="10"/>
<path d="M219.654 379.47C219.654 379.47 178.761 375.319 169.666 378.884C160.572 382.448 168.367 384.825 177.462 383.637" stroke="#263238" stroke-miterlimit="10"/>
<path d="M227.465 321.228C214.454 318.584 200.931 320.468 189.139 326.567C174.879 334.299 160.62 347.972 160.62 347.972" stroke="#263238" stroke-miterlimit="10"/>
<path d="M280.684 349.161C280.684 349.161 250.169 328.991 235.878 323.604" stroke="#263238" stroke-miterlimit="10"/>
<path d="M616.304 412.171C616.304 412.171 629.296 421.076 627.997 427.033C626.697 432.99 622.8 429.996 619.552 423.452" stroke="#263238" stroke-miterlimit="10"/>
</svg>
