<svg width="635" height="800" viewBox="0 0 635 525" fill="none" xmlns="http://www.w3.org/2000/svg">
<path d="M531.173 63.4475C529.395 63.4452 527.666 64.0332 526.257 65.1195C525.648 63.3573 524.659 61.7506 523.36 60.4132C522.06 59.0759 520.483 58.0406 518.739 57.3807C516.995 56.7208 515.127 56.4524 513.268 56.5945C511.409 56.7366 509.604 57.2858 507.981 58.2031C507.414 52.3084 504.762 46.8095 500.501 42.696C496.241 38.5825 490.653 36.1246 484.742 35.7645C478.831 35.4044 472.986 37.1659 468.258 40.7319C463.53 44.2978 460.23 49.4341 458.952 55.2165C456.906 53.1877 454.355 51.7422 451.563 51.0295C448.771 50.3168 445.839 50.3627 443.071 51.1626C440.303 51.9624 437.799 53.4872 435.817 55.5791C433.836 57.671 432.449 60.2543 431.801 63.0617C430.903 61.8528 429.735 60.8705 428.39 60.1932C427.046 59.5158 425.561 59.1622 424.055 59.1605C422.391 59.1577 420.755 59.5913 419.311 60.4181C418.855 55.9705 416.833 51.8296 413.607 48.7339C410.382 45.6383 406.161 43.7891 401.698 43.5162C397.236 43.2433 392.821 44.5644 389.242 47.2439C385.663 49.9234 383.152 53.7871 382.157 58.146C380.433 56.4468 378.246 55.2953 375.869 54.8361C373.492 54.3769 371.033 54.6306 368.8 55.5652C366.568 56.4998 364.661 58.0737 363.32 60.089C361.98 62.1043 361.265 64.4709 361.265 66.8914C361.265 67.0486 361.265 67.1915 361.265 67.3487H538.075C537.358 66.1597 536.345 65.176 535.136 64.4926C533.927 63.8092 532.562 63.4493 531.173 63.4475V63.4475Z" fill="white"/>
<path d="M365.724 343.388C363.95 343.389 362.227 343.977 360.822 345.06C360.213 343.298 359.224 341.691 357.924 340.354C356.625 339.017 355.048 337.982 353.304 337.322C351.56 336.662 349.692 336.393 347.833 336.535C345.974 336.678 344.169 337.227 342.545 338.144C341.998 332.228 339.352 326.703 335.086 322.568C330.819 318.433 325.214 315.962 319.283 315.601C313.353 315.24 307.489 317.014 302.752 320.601C298.016 324.188 294.719 329.351 293.459 335.157C291.415 333.138 288.87 331.701 286.085 330.994C283.3 330.287 280.377 330.336 277.618 331.135C274.858 331.935 272.362 333.456 270.386 335.542C268.411 337.628 267.028 340.204 266.38 343.003C264.98 341.113 262.938 339.801 260.638 339.311C258.338 338.822 255.938 339.189 253.89 340.345C253.492 335.844 251.491 331.637 248.252 328.487C245.014 325.337 240.752 323.454 236.243 323.181C231.733 322.907 227.275 324.262 223.68 326.997C220.084 329.733 217.59 333.668 216.651 338.087C214.929 336.386 212.742 335.232 210.365 334.772C207.989 334.312 205.529 334.565 203.297 335.5C201.064 336.436 199.158 338.011 197.819 340.027C196.48 342.044 195.768 344.412 195.773 346.832C195.773 346.99 195.773 347.132 195.773 347.29H372.64C371.918 346.101 370.903 345.119 369.692 344.436C368.48 343.752 367.114 343.392 365.724 343.388V343.388Z" fill="white"/>
<path d="M374.226 243.816C370.727 243.813 367.325 244.969 364.552 247.103C363.353 243.633 361.406 240.469 358.848 237.836C356.29 235.203 353.184 233.164 349.751 231.864C346.318 230.565 342.64 230.037 338.98 230.316C335.32 230.596 331.766 231.678 328.57 233.484C327.514 221.817 322.311 210.916 313.904 202.757C305.498 194.599 294.446 189.723 282.753 189.016C271.06 188.309 259.501 191.817 250.173 198.904C240.845 205.99 234.366 216.185 231.912 227.64C227.883 223.667 222.868 220.841 217.383 219.451C211.898 218.06 206.142 218.157 200.707 219.73C195.272 221.304 190.355 224.297 186.461 228.403C182.567 232.508 179.838 237.577 178.553 243.087C175.797 239.371 171.777 236.789 167.251 235.829C162.724 234.868 158.003 235.595 153.975 237.871C153.19 229.013 149.254 220.731 142.882 214.528C136.51 208.325 128.125 204.613 119.249 204.066C110.373 203.52 101.596 206.175 94.5109 211.549C87.4261 216.924 82.504 224.661 80.6384 233.356C77.2446 230.011 72.9376 227.744 68.259 226.84C63.5804 225.936 58.7391 226.436 54.3437 228.277C49.9483 230.117 46.1952 233.216 43.5562 237.183C40.9171 241.151 39.51 245.81 39.5118 250.575C39.5118 250.875 39.5118 251.175 39.5118 251.475H387.83C386.414 249.136 384.417 247.201 382.034 245.86C379.651 244.518 376.961 243.814 374.226 243.816V243.816Z" fill="white"/>
<path d="M289.315 159.576L204.59 143.2L142.7 131.082C141.958 130.939 141.209 130.839 140.456 130.782C137.155 130.525 128.053 130.096 123.051 132.368C116.864 135.226 113.863 139.513 115.62 142.371C117.378 145.229 128.81 151.36 139.113 154.832C149.416 158.305 200.56 169.351 207.705 169.922C214.85 170.494 223.853 170.894 223.853 170.894C223.853 170.894 254.405 173.666 266.08 172.609C277.755 171.551 294.66 166.307 295.546 164.035C296.432 161.763 289.315 159.576 289.315 159.576Z" fill="white"/>
<path d="M257.005 154.018C257.005 154.018 266.208 154.746 270.367 152.431C274.525 150.116 290.63 126.595 291.644 126.338C294.397 126.305 297.149 126.414 299.89 126.666L288.901 161.52L255.734 154.232L257.005 154.018Z" fill="white"/>
<path d="M279.869 170.079C279.869 170.079 282.256 169.279 283.628 168.722C285 168.165 288.058 167.093 289.772 166.235C290.834 165.688 291.71 164.838 292.287 163.792L334.357 159.219L330.07 158.876L284.828 161.906C284.8 166.493 279.869 170.079 279.869 170.079Z" fill="#263238"/>
<path d="M353.434 144.186L326.598 146.43L327.498 146.101L245.573 151.117L194.13 154.275C194.13 154.275 187.856 154.103 190 156.261L198.417 158.59C198.417 158.59 182.555 158.305 159.219 152.146C135.884 145.987 128.01 144.758 121.393 140.471C119.699 139.38 118.35 137.828 117.507 135.998C115.277 138.213 114.52 140.585 115.62 142.328C117.264 144.915 127.281 150.488 137.055 154.032L136.612 153.917L122.194 152.103C122.194 152.103 118.621 147.187 118.535 148.173C118.45 149.159 116.421 153.96 117.735 154.075C119.05 154.189 134.883 155.761 134.883 155.761L134.512 160.391C134.059 160.39 133.624 160.56 133.292 160.868C132.96 161.175 132.758 161.597 132.725 162.049C132.686 162.528 132.838 163.003 133.149 163.37C133.46 163.738 133.904 163.966 134.383 164.006C134.797 164.038 135.209 163.927 135.552 163.694C135.894 163.46 136.147 163.117 136.269 162.72C136.488 162.809 136.72 162.862 136.955 162.877H137.17C137.281 164.458 137.923 165.954 138.992 167.124C140.061 168.294 141.493 169.068 143.057 169.322C147.616 170.351 160.72 172.066 164.849 170.079C167.836 168.65 166.578 163.906 165.65 161.405C171.194 162.663 176.982 163.92 182.455 165.092L182.155 168.822L185.698 170.094L188.285 174.938L186.099 175.695C186.013 175.157 185.755 174.661 185.363 174.283C184.971 173.904 184.467 173.662 183.926 173.595C183.27 173.671 182.659 173.972 182.2 174.447C181.74 174.922 181.459 175.542 181.405 176.201C181.351 176.86 181.528 177.517 181.904 178.061C182.28 178.604 182.833 179.001 183.469 179.182C183.905 179.205 184.338 179.112 184.725 178.911C185.112 178.709 185.438 178.409 185.67 178.039L188.999 178.296V178.468C188.47 178.646 188.006 178.98 187.669 179.426C187.333 179.872 187.139 180.41 187.113 180.968C187.063 181.312 187.081 181.662 187.167 181.999C187.252 182.335 187.404 182.652 187.612 182.929C187.821 183.207 188.083 183.441 188.382 183.617C188.681 183.793 189.013 183.908 189.357 183.955C190.028 183.971 190.679 183.728 191.174 183.275C191.669 182.822 191.971 182.195 192.015 181.526H192.258C192.429 181.918 192.702 182.258 193.049 182.509C193.396 182.76 193.803 182.914 194.23 182.955C194.886 182.877 195.494 182.574 195.952 182.098C196.41 181.621 196.689 181.001 196.741 180.343C196.793 179.684 196.616 179.028 196.239 178.485C195.862 177.943 195.308 177.548 194.673 177.367C194.118 177.343 193.572 177.505 193.119 177.825C192.666 178.146 192.333 178.608 192.172 179.139L190.929 178.711L190.628 174.066L188.656 169.937L189.199 166.421C198.188 168.265 205.447 169.622 207.776 169.808C215.021 170.394 223.924 170.78 223.924 170.78C223.924 170.78 227.111 171.065 231.812 171.423L231.584 174.366H229.14C228.995 173.918 228.724 173.52 228.359 173.221C227.994 172.922 227.551 172.734 227.082 172.68C226.425 172.756 225.815 173.057 225.355 173.532C224.896 174.007 224.615 174.627 224.561 175.286C224.507 175.945 224.683 176.603 225.06 177.146C225.436 177.69 225.989 178.086 226.625 178.268C227.1 178.293 227.572 178.18 227.983 177.941C228.394 177.703 228.727 177.349 228.94 176.924L231.341 177.324V177.41C230.933 177.644 230.589 177.975 230.34 178.374C230.09 178.773 229.943 179.227 229.912 179.697C229.814 180.392 229.994 181.097 230.415 181.66C230.835 182.222 231.461 182.595 232.155 182.698C232.647 182.72 233.135 182.596 233.557 182.341C233.979 182.087 234.317 181.714 234.527 181.269L236.442 181.426C236.618 181.818 236.895 182.156 237.244 182.407C237.592 182.658 238.001 182.812 238.428 182.855C238.998 182.978 239.591 182.925 240.129 182.702C240.667 182.479 241.124 182.097 241.439 181.608C241.754 181.118 241.912 180.543 241.892 179.961C241.871 179.379 241.673 178.817 241.324 178.351C240.976 177.884 240.493 177.535 239.94 177.351C239.388 177.167 238.792 177.155 238.233 177.319C237.674 177.482 237.178 177.813 236.812 178.266C236.446 178.719 236.227 179.273 236.185 179.854L234.842 180.082L235.042 171.651C244.973 172.352 258.992 173.08 266.065 172.48C268.109 172.294 270.352 171.98 272.567 171.58C265.612 171.602 258.661 171.235 251.747 170.48C241.93 169.051 241.744 167.622 241.744 167.622C241.744 167.622 243.387 167.75 243.501 166.436C243.616 165.121 243.759 163.149 243.759 163.149C243.759 163.149 248.231 165.164 249.475 165.592C250.718 166.021 247.688 163.135 247.688 163.135L261.078 161.234L265.479 164.235L267.151 164.035L265.022 161.548L277.812 159.648H278.255L282.885 161.62L284.857 161.777L283.185 159.734L282.713 158.305L294.517 156.361C294.517 156.361 298.904 159.362 301.262 158.876C303.619 158.39 301.119 156.561 301.119 156.561L305.792 156.104L309.45 155.904L309.707 152.603L314.78 150.745L358.607 145.272L363.666 140.056L353.434 144.186ZM142.9 157.118C142.9 157.118 138.241 156.475 137.184 159.662H137.07C136.847 159.626 136.62 159.626 136.398 159.662L136.684 156.047L150.474 157.89L151.745 158.204L142.9 157.118Z" fill="#263238"/>
<path d="M233.384 155.432L222.467 155.547C222.467 155.547 223.667 156.976 224.01 160.977C224.353 164.978 226.582 166.135 229.84 166.693C233.098 167.25 237.857 165.678 237.843 161.706C237.828 157.733 236.699 155.361 233.384 155.432Z" fill="white"/>
<path d="M121.894 133.597L120.622 136.241L123.08 136.469L124.494 133.811L121.894 133.597Z" fill="#263238"/>
<path d="M132.883 137.427L134.869 137.613L133.797 134.555L132.968 134.483L132.883 137.427Z" fill="#263238"/>
<path d="M128.51 134.126L127.895 136.941L132.068 137.341L132.154 134.426L128.51 134.126Z" fill="#263238"/>
<path d="M127.695 134.069L125.38 133.883L123.951 136.555L127.081 136.87L127.695 134.069Z" fill="#263238"/>
<path d="M121.022 133.526H120.836C119.67 134.209 118.586 135.024 117.607 135.955L119.75 136.169L121.022 133.526Z" fill="#263238"/>
<path d="M611.769 226.325C611.588 222.781 611.331 219.232 610.997 215.679H582.946V192.043H607.825C606.872 186.499 605.734 180.983 604.409 175.495H439.917V190.857H460.009L471.813 226.325H495.463V409.537H514.268C527.888 400.403 540.857 390.333 553.08 379.399C565.676 368.26 576.546 355.31 585.332 340.973H553.394V305.52H597.136V317.938C599.646 311.949 601.831 305.829 603.681 299.604H603.038V264.15H610.754C610.964 262.178 611.15 260.206 611.312 258.234H603.038V226.325H611.769ZM514.383 192.029H546.306V215.665H514.383V192.029ZM480.087 215.665L471.298 192.029H512.01V215.665H480.087ZM547.55 340.973H503.822V305.52H547.55V340.973ZM547.55 299.604H503.822V264.15H547.55V299.604ZM547.55 258.163H503.822V226.325H547.55V258.163ZM548.736 215.607V192.043H580.66V215.679L548.736 215.607ZM597.207 299.532H553.394V264.15H597.136L597.207 299.532ZM597.207 258.092H553.394V226.325H597.136L597.207 258.092Z" fill="#263238"/>
<path d="M589.276 405.521H19.0914V420.24H589.276V405.521Z" fill="#263238"/>
<path d="M465.439 413.552C465.25 413.552 465.068 413.477 464.934 413.343C464.8 413.209 464.725 413.027 464.725 412.838V0.7145C464.725 0.525002 464.8 0.343266 464.934 0.209272C465.068 0.0752769 465.25 0 465.439 0C465.629 0 465.811 0.0752769 465.945 0.209272C466.079 0.343266 466.154 0.525002 466.154 0.7145V412.838C466.154 413.027 466.079 413.209 465.945 413.343C465.811 413.477 465.629 413.552 465.439 413.552Z" fill="#263238"/>
<path d="M225.367 413.552C225.178 413.552 224.996 413.477 224.862 413.343C224.728 413.209 224.653 413.027 224.653 412.838V2.38644C224.653 2.19694 224.728 2.0152 224.862 1.88121C224.996 1.74721 225.178 1.67194 225.367 1.67194C225.557 1.67194 225.739 1.74721 225.873 1.88121C226.007 2.0152 226.082 2.19694 226.082 2.38644V412.838C226.082 413.027 226.007 413.209 225.873 413.343C225.739 413.477 225.557 413.552 225.367 413.552Z" fill="#263238"/>
<path d="M633.39 261.278H0.7145C0.525002 261.278 0.343266 261.203 0.209272 261.069C0.0752769 260.935 0 260.753 0 260.564C0 260.374 0.0752769 260.192 0.209272 260.058C0.343266 259.924 0.525002 259.849 0.7145 259.849H633.39C633.579 259.849 633.761 259.924 633.895 260.058C634.029 260.192 634.104 260.374 634.104 260.564C634.104 260.753 634.029 260.935 633.895 261.069C633.761 261.203 633.579 261.278 633.39 261.278Z" fill="#263238"/>
<path d="M609.797 95.943H20.0203C19.8308 95.943 19.649 95.8677 19.515 95.7337C19.381 95.5998 19.3058 95.418 19.3058 95.2285C19.3058 95.039 19.381 94.8573 19.515 94.7233C19.649 94.5893 19.8308 94.514 20.0203 94.514H609.797C609.986 94.514 610.168 94.5893 610.302 94.7233C610.436 94.8573 610.511 95.039 610.511 95.2285C610.511 95.418 610.436 95.5998 610.302 95.7337C610.168 95.8677 609.986 95.943 609.797 95.943Z" fill="#263238"/>
<path d="M304.048 185.827C303.972 185.825 303.898 185.799 303.837 185.752C303.777 185.706 303.733 185.641 303.712 185.567C303.691 185.493 303.695 185.415 303.722 185.344C303.749 185.272 303.798 185.211 303.862 185.17L310.064 181.34C310.146 181.291 310.244 181.276 310.337 181.297C310.43 181.318 310.512 181.375 310.564 181.454C310.61 181.537 310.623 181.634 310.602 181.726C310.581 181.818 310.527 181.9 310.45 181.954L304.234 185.77C304.18 185.808 304.115 185.828 304.048 185.827V185.827Z" fill="#263238"/>
<path d="M318.61 176.853C318.532 176.854 318.456 176.83 318.393 176.785C318.33 176.739 318.284 176.674 318.262 176.6C318.239 176.525 318.241 176.446 318.268 176.373C318.295 176.3 318.344 176.238 318.41 176.196L414.753 116.821C414.836 116.775 414.932 116.762 415.025 116.783C415.117 116.804 415.198 116.858 415.253 116.935C415.3 117.019 415.314 117.118 415.29 117.211C415.266 117.304 415.206 117.385 415.124 117.435L318.795 176.81C318.737 176.838 318.674 176.852 318.61 176.853Z" fill="#263238"/>
<path d="M350.462 169.051C350.402 169.05 350.342 169.034 350.29 169.004C350.237 168.974 350.193 168.931 350.162 168.879C350.114 168.799 350.099 168.704 350.12 168.613C350.142 168.522 350.198 168.443 350.276 168.393L427.442 120.822C427.481 120.796 427.525 120.779 427.571 120.77C427.617 120.762 427.664 120.763 427.71 120.774C427.755 120.785 427.798 120.805 427.836 120.833C427.873 120.861 427.905 120.896 427.928 120.936C427.977 121.018 427.992 121.116 427.971 121.209C427.95 121.302 427.893 121.384 427.814 121.436L350.648 168.993C350.592 169.029 350.528 169.049 350.462 169.051Z" fill="#263238"/>
<path d="M438.06 115.092C437.997 115.093 437.935 115.078 437.879 115.048C437.824 115.018 437.778 114.974 437.745 114.92C437.698 114.839 437.686 114.742 437.71 114.651C437.734 114.56 437.793 114.482 437.874 114.434L461.181 100.059C461.261 100.01 461.356 99.9954 461.447 100.017C461.538 100.038 461.617 100.094 461.667 100.173C461.716 100.255 461.731 100.353 461.71 100.446C461.688 100.539 461.632 100.62 461.552 100.673L438.245 114.963C438.202 115.027 438.135 115.073 438.06 115.092V115.092Z" fill="#263238"/>
<path d="M51.101 390.66C51.0234 390.661 50.9474 390.637 50.8846 390.592C50.8218 390.546 50.7755 390.481 50.7529 390.407C50.7303 390.332 50.7325 390.253 50.7592 390.18C50.786 390.107 50.8357 390.045 50.9009 390.002L57.1171 386.173C57.1561 386.147 57.1999 386.129 57.246 386.121C57.292 386.113 57.3392 386.114 57.3847 386.125C57.4302 386.136 57.473 386.156 57.5106 386.184C57.5481 386.211 57.5795 386.247 57.603 386.287C57.6287 386.326 57.6462 386.37 57.6544 386.416C57.6626 386.462 57.6614 386.509 57.6507 386.555C57.6399 386.6 57.62 386.643 57.5922 386.681C57.5643 386.718 57.5291 386.749 57.4886 386.773L51.2868 390.545C51.2405 390.605 51.1746 390.645 51.101 390.66V390.66Z" fill="#263238"/>
<path d="M65.6482 381.686C65.5718 381.684 65.4979 381.658 65.4374 381.611C65.377 381.564 65.3331 381.499 65.3124 381.426C65.2916 381.352 65.2949 381.274 65.3219 381.202C65.349 381.131 65.3982 381.07 65.4624 381.028L161.806 321.653C161.845 321.628 161.888 321.61 161.934 321.602C161.98 321.594 162.028 321.595 162.073 321.606C162.119 321.616 162.161 321.636 162.199 321.664C162.237 321.692 162.268 321.727 162.291 321.768C162.34 321.85 162.356 321.948 162.334 322.041C162.313 322.134 162.257 322.215 162.177 322.268L65.834 381.643C65.7764 381.672 65.7127 381.687 65.6482 381.686V381.686Z" fill="#263238"/>
<path d="M97.5149 373.898C97.4544 373.897 97.3952 373.881 97.3427 373.851C97.2902 373.821 97.2462 373.778 97.2148 373.726C97.189 373.687 97.1715 373.643 97.1633 373.597C97.1551 373.551 97.1564 373.504 97.1671 373.459C97.1778 373.413 97.1977 373.37 97.2256 373.333C97.2534 373.295 97.2887 373.264 97.3291 373.24L174.495 325.669C174.577 325.62 174.675 325.605 174.768 325.626C174.861 325.647 174.943 325.704 174.995 325.783C175.043 325.863 175.058 325.959 175.037 326.049C175.016 326.14 174.96 326.219 174.881 326.269L97.715 373.84C97.6578 373.884 97.5864 373.904 97.5149 373.898Z" fill="#263238"/>
<path d="M185.098 319.924C185.038 319.921 184.98 319.904 184.928 319.874C184.876 319.844 184.831 319.803 184.798 319.753C184.749 319.671 184.734 319.573 184.755 319.48C184.776 319.387 184.833 319.305 184.912 319.253L208.219 304.891C208.302 304.842 208.399 304.827 208.492 304.848C208.586 304.869 208.667 304.926 208.72 305.006C208.765 305.088 208.779 305.185 208.758 305.277C208.737 305.37 208.682 305.451 208.605 305.506L185.284 319.867C185.228 319.901 185.164 319.921 185.098 319.924V319.924Z" fill="#263238"/>
<path d="M403.992 395.59C403.916 395.588 403.842 395.562 403.782 395.515C403.721 395.468 403.677 395.403 403.656 395.33C403.636 395.256 403.639 395.178 403.666 395.106C403.693 395.035 403.742 394.974 403.807 394.932L410.023 391.103C410.103 391.055 410.198 391.04 410.289 391.061C410.38 391.082 410.459 391.138 410.509 391.217C410.557 391.299 410.573 391.397 410.552 391.49C410.53 391.583 410.474 391.665 410.394 391.717L404.178 395.547C404.121 395.576 404.057 395.591 403.992 395.59Z" fill="#263238"/>
<path d="M418.554 386.63C418.492 386.629 418.43 386.613 418.376 386.583C418.321 386.553 418.274 386.51 418.24 386.459C418.192 386.375 418.179 386.276 418.203 386.182C418.227 386.089 418.286 386.009 418.368 385.958L514.683 326.598C514.723 326.572 514.768 326.554 514.815 326.546C514.862 326.537 514.91 326.538 514.957 326.549C515.004 326.56 515.048 326.58 515.086 326.608C515.125 326.636 515.158 326.671 515.183 326.712C515.227 326.793 515.24 326.887 515.219 326.977C515.198 327.067 515.144 327.146 515.068 327.198L418.725 386.573C418.672 386.603 418.614 386.622 418.554 386.63V386.63Z" fill="#263238"/>
<path d="M450.378 378.828C450.301 378.826 450.227 378.8 450.167 378.753C450.106 378.706 450.063 378.641 450.042 378.568C450.021 378.494 450.024 378.416 450.051 378.344C450.078 378.273 450.128 378.212 450.192 378.17L527.358 330.599C527.438 330.551 527.533 330.536 527.624 330.557C527.715 330.579 527.794 330.635 527.844 330.713C527.87 330.753 527.888 330.798 527.896 330.845C527.904 330.893 527.903 330.941 527.892 330.988C527.882 331.034 527.862 331.078 527.834 331.117C527.806 331.156 527.77 331.189 527.729 331.213L450.563 378.785C450.505 378.812 450.442 378.827 450.378 378.828V378.828Z" fill="#263238"/>
<path d="M538.004 324.811C537.941 324.813 537.879 324.798 537.824 324.768C537.768 324.738 537.722 324.694 537.69 324.64C537.643 324.558 537.63 324.462 537.654 324.371C537.678 324.28 537.737 324.202 537.818 324.154L561.125 309.778C561.207 309.732 561.303 309.719 561.394 309.743C561.485 309.767 561.563 309.826 561.611 309.907C561.637 309.946 561.654 309.99 561.662 310.036C561.671 310.082 561.669 310.129 561.659 310.175C561.648 310.22 561.628 310.263 561.6 310.3C561.572 310.338 561.537 310.369 561.497 310.393L538.19 324.811C538.129 324.83 538.064 324.83 538.004 324.811Z" fill="#263238"/>
<path d="M43.313 409.68C47.6 416.067 53.6303 424.384 56.8313 431.043C55.6024 426.642 54.4163 422.469 53.3302 418.74C51.6869 415.524 47.2999 407.393 42.2412 401.977C35.8107 395.09 33.0527 390.66 36.5252 390.288C38.9259 390.017 45.9423 399.377 50.3436 408.665C49.3862 405.478 48.6288 403.063 48.1716 401.649C47.9715 401.006 47.7571 400.291 47.5571 399.548C43.0054 393.174 38.8579 386.521 35.1391 379.628C28.6371 367.481 26.5651 356.021 30.8521 360.951C34.839 365.495 41.7839 388.102 47.2999 398.676C46.8426 396.847 46.3996 394.818 45.9995 392.832C45.2278 390.888 44.1989 388.931 43.613 387.116C42.7128 384.386 41.9268 381.614 41.2838 378.799C40.2357 374.408 39.7034 369.91 39.6976 365.395C39.592 360.1 41.0374 354.889 43.856 350.405C44.5991 349.276 49.1719 342.46 50.5723 345.975C50.756 346.552 50.7904 347.167 50.6723 347.761C50.0007 353.577 47.9 358.907 46.5997 364.566C44.6419 373.026 45.9423 387.23 46.5997 393.275L47.5428 396.79C46.6282 386.258 51.1867 373.783 55.4166 371.611C60.6467 368.91 55.5166 379.499 51.4868 388.759C49.5704 392.806 48.6727 397.261 48.8718 401.734C49.6863 404.778 50.6294 408.194 51.6154 411.652C51.8155 412.128 52.0013 412.604 52.1728 413.081C51.7502 410.835 51.5871 408.548 51.6869 406.264C52.087 400.234 58.9319 388.13 63.4761 389.831C68.0204 391.531 60.3181 397.919 56.2025 405.35C54.0595 409.439 53.231 414.09 53.8304 418.668L53.959 419.483C54.4306 421.055 54.8878 422.569 55.388 424.013C56.4597 427.385 57.4458 430.572 58.4032 433.673C57.2349 429.178 56.7199 424.539 56.8742 419.897C57.4458 411.037 62.5902 402.678 66.9629 401.534C71.3356 400.391 63.076 414.838 60.3181 422.969C58.8265 427.709 58.5756 432.752 59.5893 437.617C60.9182 442.018 62.1758 446.334 63.4476 450.935C63.0892 444.933 63.2183 438.911 63.8334 432.93C64.6765 423.069 70.5354 416.768 74.5652 417.025C78.595 417.282 74.3937 422.884 68.5634 434.844C65.4911 441.116 64.1071 448.081 64.5479 455.05C65.0766 456.994 65.6053 458.98 66.1627 461.052C66.7771 463.41 67.2916 465.982 67.7203 468.612C68.3062 466.268 69.1493 462.896 70.1924 459.052C71.3668 454.835 72.2218 450.536 72.7503 446.191C73.2934 441.161 74.6223 434.902 79.5524 432.287C79.8901 432.064 80.2712 431.916 80.6703 431.852C81.0695 431.788 81.4777 431.809 81.868 431.915C82.2583 432.02 82.6219 432.207 82.9346 432.463C83.2473 432.72 83.5021 433.039 83.6822 433.401C84.1394 434.475 84.2445 435.665 83.9823 436.802C83.3256 440.224 82.1954 443.538 80.6241 446.648C81.5909 448.505 82.0354 450.589 81.9102 452.678C81.9102 453.464 81.9102 454.25 81.7816 455.022C82.2103 454.222 82.6247 453.493 83.0248 452.836C83.7239 451.651 84.5957 450.577 85.6113 449.649C85.3544 447.783 85.2255 445.902 85.2255 444.019C85.2255 441.575 88.0835 435.345 90.67 439.96C91.7132 441.818 91.5131 445.433 91.6131 447.848C92.3276 448.506 92.5277 449.877 91.9418 452.021C92.5265 457.596 92.2323 463.228 91.0701 468.712L91.9561 467.154C93.2055 460.74 93.9461 454.237 94.171 447.705C94.4997 436.859 92.742 427.957 95.7287 424.613C98.7153 421.269 100.33 433.03 99.0868 445.848C98.4919 451.699 96.9323 457.411 94.4711 462.753C97.3291 457.551 100.187 452.235 102.945 447.12C105.345 441.568 106.44 435.541 106.146 429.5C105.289 420.04 104.717 412.352 108.247 406.993C111.776 401.635 112.534 405.136 110.819 416.21C109.619 423.827 108.332 433.987 106.117 441.046C108.232 437.002 110.19 433.158 111.962 429.614C112.962 426.142 115.306 417.211 115.292 409.794C115.292 400.363 116.306 395.261 119.093 397.333C121.036 398.762 119.779 410.409 116.663 420.197C118.092 417.211 119.221 414.924 119.864 413.581C120.15 412.966 120.479 412.309 120.836 411.623C121.858 403.862 123.366 396.174 125.352 388.602C128.896 375.284 135.183 365.481 134.983 372.04C134.812 378.07 124.494 399.305 121.279 410.837C122.179 409.18 123.237 407.393 124.309 405.664C125.066 403.721 125.652 401.592 126.438 399.948C127.652 397.333 128.967 394.761 130.41 392.275C132.64 388.347 135.326 384.697 138.413 381.4C141.948 377.433 146.577 374.6 151.717 373.255C153.032 372.94 161.02 371.068 159.648 374.584C159.397 375.151 159.003 375.644 158.505 376.013C154.046 379.799 148.873 382.272 144.057 385.515C136.912 390.374 128.11 401.634 124.494 406.522L122.765 409.737C129.296 401.42 141.142 395.447 145.715 396.704C151.431 398.291 140.399 402.535 131.139 406.536C126.983 408.196 123.291 410.839 120.379 414.238C118.95 417.025 117.264 420.169 115.62 423.37L115.063 424.799C116.279 422.848 117.718 421.045 119.35 419.426C123.766 415.267 137.027 411.094 139.17 415.453C141.314 419.811 131.354 419.211 123.28 421.826C118.917 423.348 115.133 426.183 112.448 429.943C112.305 430.172 112.148 430.4 111.991 430.615C111.262 432.044 110.562 433.473 109.919 434.902C108.39 438.103 106.946 441.103 105.517 444.019C107.739 439.938 110.53 436.195 113.805 432.901C120.279 426.813 129.767 424.256 133.711 426.37C137.655 428.485 121.708 433.415 114.191 437.402C109.866 439.847 106.24 443.36 103.66 447.605C101.616 451.721 99.587 455.751 97.3863 459.981C101.217 455.355 105.423 451.054 109.961 447.12C117.292 440.489 125.881 439.889 128.638 442.833C131.396 445.776 124.523 446.991 112.105 451.749C105.562 454.254 99.7922 458.433 95.3714 463.867C94.4283 465.639 93.4708 467.454 92.5134 469.34C91.3559 471.484 89.9698 473.713 88.4836 475.928C90.5128 474.613 93.4994 472.699 96.8147 470.627C100.542 468.361 104.091 465.814 107.432 463.01C111.262 459.723 116.506 456.036 121.894 457.48C122.293 457.548 122.674 457.7 123.011 457.926C123.347 458.152 123.631 458.448 123.845 458.792C124.058 459.137 124.196 459.523 124.249 459.925C124.302 460.327 124.269 460.736 124.151 461.124C123.751 462.225 123.01 463.171 122.037 463.825C116.949 467.754 110.119 469.655 104.203 471.984C98.7743 474.115 93.2133 475.89 87.5548 477.3C86.1258 479.315 84.6968 481.301 83.2678 483.202L85.9114 483.287C89.0552 483.373 103.245 476.943 110.447 474.885C117.649 472.827 124.38 476.728 116.835 480.787C109.29 484.845 88.7551 483.945 88.7551 483.945L82.8248 483.759C81.3958 485.545 80.0811 487.232 78.795 488.789H106.918V496.577H101.259L96.7432 524.328H59.3606L54.845 496.577H49.3005V488.789H67.8775C68.0215 485.414 67.926 482.033 67.5917 478.672C66.3497 477.416 64.9745 476.3 63.4904 475.342C55.3023 469.698 41.4267 469.226 37.7684 458.337C36.8825 455.708 37.8971 452.35 41.0266 452.493C43.2844 452.593 45.6851 454.579 47.0855 456.208C51.7583 461.61 55.288 467.211 61.3755 471.312C61.647 471.498 65.491 474.556 67.3916 476.443C67.1915 474.671 66.92 472.784 66.5771 470.727C65.1068 468.116 63.4244 465.631 61.547 463.296C56.5741 457.108 49.0004 453.479 43.5988 447.577C41.9554 445.776 39.7833 439.274 44.8134 440.889C47.0569 441.618 49.7006 445.005 51.444 446.605C56.4026 451.021 61.447 455.808 64.7194 461.681C64.5765 461.095 64.4479 460.524 64.305 459.938C60.8303 454.358 56.9117 449.068 52.5872 444.119C45.4422 435.973 38.0828 430.643 37.9685 426.185C37.8542 421.726 47.0855 429.2 54.9164 439.417C58.4878 444.071 61.2598 449.287 63.1189 454.85C61.6899 449.063 60.1609 443.233 58.6461 437.631C57.6172 434.844 54.5735 427.628 48.9575 422.569C41.8125 416.253 36.0965 411.037 35.1391 404.693C34.1817 398.348 37.0397 400.377 43.313 409.68ZM82.9248 481.401C83.9823 479.972 85.0826 478.386 86.2115 476.671C86.9286 473.762 87.4065 470.799 87.6405 467.811C87.7931 465.253 87.6733 462.685 87.2833 460.152C85.3897 462.511 83.372 464.767 81.2386 466.911C81.2831 469.143 81.556 471.365 82.0531 473.542C82.096 473.856 82.8248 478.715 82.9248 481.401ZM76.8516 488.746C78.2806 487.217 79.8668 485.388 81.5673 483.187C81.5176 481.423 81.2732 479.669 80.8385 477.957C80.1573 475.25 79.1747 472.629 77.909 470.141C75.2797 472.656 73.3362 474.313 73.3362 474.313L68.8349 478.229C69.1921 482.116 69.3922 485.774 69.5208 488.746H76.8516ZM68.8349 477.529L70.8212 475.771C71.9644 474.771 73.9507 470.898 76.1371 466.425C75.2058 464.544 74.3804 462.612 73.6649 460.638C71.307 465.011 69.1778 468.412 67.9489 470.255C68.3062 472.684 68.592 475.142 68.8349 477.529Z" fill="#FFC100"/>
<path opacity="0.4" d="M43.313 409.68C47.6 416.067 53.6303 424.384 56.8313 431.043C55.6024 426.642 54.4163 422.469 53.3302 418.74C51.6869 415.524 47.2999 407.393 42.2412 401.977C35.8107 395.09 33.0527 390.66 36.5252 390.288C38.9259 390.017 45.9423 399.377 50.3436 408.665C49.3862 405.478 48.6288 403.063 48.1716 401.649C47.9715 401.006 47.7571 400.291 47.5571 399.548C43.0054 393.174 38.8579 386.521 35.1391 379.628C28.6371 367.481 26.5651 356.021 30.8521 360.951C34.839 365.495 41.7839 388.102 47.2999 398.676C46.8426 396.847 46.3996 394.818 45.9995 392.832C45.2278 390.888 44.1989 388.931 43.613 387.116C42.7128 384.386 41.9268 381.614 41.2838 378.799C40.2357 374.408 39.7034 369.91 39.6976 365.395C39.592 360.1 41.0374 354.889 43.856 350.405C44.5991 349.276 49.1719 342.46 50.5723 345.975C50.756 346.552 50.7904 347.167 50.6723 347.761C50.0007 353.577 47.9 358.907 46.5997 364.566C44.6419 373.026 45.9423 387.23 46.5997 393.275L47.5428 396.79C46.6282 386.258 51.1867 373.783 55.4166 371.611C60.6467 368.91 55.5166 379.499 51.4868 388.759C49.5704 392.806 48.6727 397.261 48.8718 401.734C49.6863 404.778 50.6294 408.194 51.6154 411.652C51.8155 412.128 52.0013 412.604 52.1728 413.081C51.7502 410.835 51.5871 408.548 51.6869 406.264C52.087 400.234 58.9319 388.13 63.4761 389.831C68.0204 391.531 60.3181 397.919 56.2025 405.35C54.0595 409.439 53.231 414.09 53.8304 418.668L53.959 419.483C54.4306 421.055 54.8878 422.569 55.388 424.013C56.4597 427.385 57.4458 430.572 58.4032 433.673C57.2349 429.178 56.7199 424.539 56.8742 419.897C57.4458 411.037 62.5902 402.678 66.9629 401.534C71.3356 400.391 63.076 414.838 60.3181 422.969C58.8265 427.709 58.5756 432.752 59.5893 437.617C60.9182 442.018 62.1758 446.334 63.4476 450.935C63.0892 444.933 63.2183 438.911 63.8334 432.93C64.6765 423.069 70.5354 416.768 74.5652 417.025C78.595 417.282 74.3937 422.884 68.5634 434.844C65.4911 441.116 64.1071 448.081 64.5479 455.05C65.0766 456.994 65.6053 458.98 66.1627 461.052C66.7771 463.41 67.2916 465.982 67.7203 468.612C68.3062 466.268 69.1493 462.896 70.1924 459.052C71.3668 454.835 72.2218 450.536 72.7503 446.191C73.2934 441.161 74.6223 434.902 79.5524 432.287C79.8901 432.064 80.2712 431.916 80.6703 431.852C81.0695 431.788 81.4777 431.809 81.868 431.915C82.2583 432.02 82.6219 432.207 82.9346 432.463C83.2473 432.72 83.5021 433.039 83.6822 433.401C84.1394 434.475 84.2445 435.665 83.9823 436.802C83.3256 440.224 82.1954 443.538 80.6241 446.648C81.5909 448.505 82.0354 450.589 81.9102 452.678C81.9102 453.464 81.9102 454.25 81.7816 455.022C82.2103 454.222 82.6247 453.493 83.0248 452.836C83.7239 451.651 84.5957 450.577 85.6113 449.649C85.3544 447.783 85.2255 445.902 85.2255 444.019C85.2255 441.575 88.0835 435.345 90.67 439.96C91.7132 441.818 91.5131 445.433 91.6131 447.848C92.3276 448.506 92.5277 449.877 91.9418 452.021C92.5265 457.596 92.2323 463.228 91.0701 468.712L91.9561 467.154C93.2055 460.74 93.9461 454.237 94.171 447.705C94.4997 436.859 92.742 427.957 95.7287 424.613C98.7153 421.269 100.33 433.03 99.0868 445.848C98.4919 451.699 96.9323 457.411 94.4711 462.753C97.3291 457.551 100.187 452.235 102.945 447.12C105.345 441.568 106.44 435.541 106.146 429.5C105.289 420.04 104.717 412.352 108.247 406.993C111.776 401.635 112.534 405.136 110.819 416.21C109.619 423.827 108.332 433.987 106.117 441.046C108.232 437.002 110.19 433.158 111.962 429.614C112.962 426.142 115.306 417.211 115.292 409.794C115.292 400.363 116.306 395.261 119.093 397.333C121.036 398.762 119.779 410.409 116.663 420.197C118.092 417.211 119.221 414.924 119.864 413.581C120.15 412.966 120.479 412.309 120.836 411.623C121.858 403.862 123.366 396.174 125.352 388.602C128.896 375.284 135.183 365.481 134.983 372.04C134.812 378.07 124.494 399.305 121.279 410.837C122.179 409.18 123.237 407.393 124.309 405.664C125.066 403.721 125.652 401.592 126.438 399.948C127.652 397.333 128.967 394.761 130.41 392.275C132.64 388.347 135.326 384.697 138.413 381.4C141.948 377.433 146.577 374.6 151.717 373.255C153.032 372.94 161.02 371.068 159.648 374.584C159.397 375.151 159.003 375.644 158.505 376.013C154.046 379.799 148.873 382.272 144.057 385.515C136.912 390.374 128.11 401.634 124.494 406.522L122.765 409.737C129.296 401.42 141.142 395.447 145.715 396.704C151.431 398.291 140.399 402.535 131.139 406.536C126.983 408.196 123.291 410.839 120.379 414.238C118.95 417.025 117.264 420.169 115.62 423.37L115.063 424.799C116.279 422.848 117.718 421.045 119.35 419.426C123.766 415.267 137.027 411.094 139.17 415.453C141.314 419.811 131.354 419.211 123.28 421.826C118.917 423.348 115.133 426.183 112.448 429.943C112.305 430.172 112.148 430.4 111.991 430.615C111.262 432.044 110.562 433.473 109.919 434.902C108.39 438.103 106.946 441.103 105.517 444.019C107.739 439.938 110.53 436.195 113.805 432.901C120.279 426.813 129.767 424.256 133.711 426.37C137.655 428.485 121.708 433.415 114.191 437.402C109.866 439.847 106.24 443.36 103.66 447.605C101.616 451.721 99.587 455.751 97.3863 459.981C101.217 455.355 105.423 451.054 109.961 447.12C117.292 440.489 125.881 439.889 128.638 442.833C131.396 445.776 124.523 446.991 112.105 451.749C105.562 454.254 99.7922 458.433 95.3714 463.867C94.4283 465.639 93.4708 467.454 92.5134 469.34C91.3559 471.484 89.9698 473.713 88.4836 475.928C90.5128 474.613 93.4994 472.699 96.8147 470.627C100.542 468.361 104.091 465.814 107.432 463.01C111.262 459.723 116.506 456.036 121.894 457.48C122.293 457.548 122.674 457.7 123.011 457.926C123.347 458.152 123.631 458.448 123.845 458.792C124.058 459.137 124.196 459.523 124.249 459.925C124.302 460.327 124.269 460.736 124.151 461.124C123.751 462.225 123.01 463.171 122.037 463.825C116.949 467.754 110.119 469.655 104.203 471.984C98.7743 474.115 93.2133 475.89 87.5548 477.3C86.1258 479.315 84.6968 481.301 83.2678 483.202L85.9114 483.287C89.0552 483.373 103.245 476.943 110.447 474.885C117.649 472.827 124.38 476.728 116.835 480.787C109.29 484.845 88.7551 483.945 88.7551 483.945L82.8248 483.759C81.3958 485.545 80.0811 487.232 78.795 488.789H106.918V496.577H101.259L96.7432 524.328H59.3606L54.845 496.577H49.3005V488.789H67.8775C68.0215 485.414 67.926 482.033 67.5917 478.672C66.3497 477.416 64.9745 476.3 63.4904 475.342C55.3023 469.698 41.4267 469.226 37.7684 458.337C36.8825 455.708 37.8971 452.35 41.0266 452.493C43.2844 452.593 45.6851 454.579 47.0855 456.208C51.7583 461.61 55.288 467.211 61.3755 471.312C61.647 471.498 65.491 474.556 67.3916 476.443C67.1915 474.671 66.92 472.784 66.5771 470.727C65.1068 468.116 63.4244 465.631 61.547 463.296C56.5741 457.108 49.0004 453.479 43.5988 447.577C41.9554 445.776 39.7833 439.274 44.8134 440.889C47.0569 441.618 49.7006 445.005 51.444 446.605C56.4026 451.021 61.447 455.808 64.7194 461.681C64.5765 461.095 64.4479 460.524 64.305 459.938C60.8303 454.358 56.9117 449.068 52.5872 444.119C45.4422 435.973 38.0828 430.643 37.9685 426.185C37.8542 421.726 47.0855 429.2 54.9164 439.417C58.4878 444.071 61.2598 449.287 63.1189 454.85C61.6899 449.063 60.1609 443.233 58.6461 437.631C57.6172 434.844 54.5735 427.628 48.9575 422.569C41.8125 416.253 36.0965 411.037 35.1391 404.693C34.1817 398.348 37.0397 400.377 43.313 409.68ZM82.9248 481.401C83.9823 479.972 85.0826 478.386 86.2115 476.671C86.9286 473.762 87.4065 470.799 87.6405 467.811C87.7931 465.253 87.6733 462.685 87.2833 460.152C85.3897 462.511 83.372 464.767 81.2386 466.911C81.2831 469.143 81.556 471.365 82.0531 473.542C82.096 473.856 82.8248 478.715 82.9248 481.401ZM76.8516 488.746C78.2806 487.217 79.8668 485.388 81.5673 483.187C81.5176 481.423 81.2732 479.669 80.8385 477.957C80.1573 475.25 79.1747 472.629 77.909 470.141C75.2797 472.656 73.3362 474.313 73.3362 474.313L68.8349 478.229C69.1921 482.116 69.3922 485.774 69.5208 488.746H76.8516ZM68.8349 477.529L70.8212 475.771C71.9644 474.771 73.9507 470.898 76.1371 466.425C75.2058 464.544 74.3804 462.612 73.6649 460.638C71.307 465.011 69.1778 468.412 67.9489 470.255C68.3062 472.684 68.592 475.142 68.8349 477.529Z" fill="white"/>
<path d="M613.026 525H600.165C599.976 525 599.794 524.925 599.66 524.791C599.526 524.657 599.451 524.475 599.451 524.285C599.451 524.096 599.526 523.914 599.66 523.78C599.794 523.646 599.976 523.571 600.165 523.571H613.026C613.216 523.571 613.398 523.646 613.532 523.78C613.666 523.914 613.741 524.096 613.741 524.285C613.741 524.475 613.666 524.657 613.532 524.791C613.398 524.925 613.216 525 613.026 525Z" fill="#263238"/>
<path d="M585.147 525H247.36C247.17 525 246.989 524.925 246.855 524.791C246.721 524.657 246.645 524.475 246.645 524.285C246.645 524.096 246.721 523.914 246.855 523.78C246.989 523.646 247.17 523.571 247.36 523.571H585.147C585.336 523.571 585.518 523.646 585.652 523.78C585.786 523.914 585.861 524.096 585.861 524.285C585.861 524.475 585.786 524.657 585.652 524.791C585.518 524.925 585.336 525 585.147 525Z" fill="#263238"/>
<path d="M238.771 525H8.21676C8.02726 525 7.84552 524.925 7.71153 524.791C7.57754 524.657 7.50226 524.475 7.50226 524.285C7.50226 524.096 7.57754 523.914 7.71153 523.78C7.84552 523.646 8.02726 523.571 8.21676 523.571H238.771C238.961 523.571 239.143 523.646 239.277 523.78C239.411 523.914 239.486 524.096 239.486 524.285C239.486 524.475 239.411 524.657 239.277 524.791C239.143 524.925 238.961 525 238.771 525Z" fill="#263238"/>
<path d="M351.634 354.82C351.634 354.82 344.96 414.838 343.689 431.286C342.417 447.734 336.401 488.446 336.401 495.062C336.401 501.679 337.029 509.981 337.029 509.981L329.413 510.61C329.413 510.61 325.297 482.687 325.297 470.598C325.297 458.509 321.168 435.373 321.482 427.128C321.796 418.882 324.026 406.507 324.026 399.205C324.026 391.903 316.723 373.826 317.366 348.762C318.009 323.697 351.634 354.82 351.634 354.82Z" fill="#263238"/>
<path d="M329.413 511.353C329.244 511.352 329.081 511.291 328.953 511.181C328.825 511.071 328.74 510.919 328.713 510.753C328.713 510.467 324.583 482.63 324.583 470.669C324.287 462.736 323.586 454.824 322.482 446.962C321.525 438.889 320.61 431.243 320.767 427.171C320.925 423.098 321.496 418.468 322.039 413.81C322.715 408.991 323.14 404.14 323.311 399.277C323.002 395.621 322.366 392.001 321.41 388.459C319.338 379.314 316.223 365.481 316.652 348.804C316.781 343.531 318.381 340.23 321.396 338.93C330.942 334.886 351.248 353.534 352.12 354.335C352.2 354.411 352.262 354.505 352.299 354.609C352.336 354.713 352.348 354.825 352.334 354.935C352.334 355.535 345.661 415.081 344.403 431.372C343.774 439.603 341.931 454.064 340.302 466.825C338.673 479.586 337.115 491.79 337.115 495.091C337.115 501.65 337.744 509.867 337.744 509.953C337.752 510.047 337.741 510.141 337.712 510.231C337.683 510.32 337.637 510.403 337.576 510.475C337.515 510.547 337.44 510.606 337.356 510.649C337.272 510.691 337.181 510.717 337.087 510.724L329.47 511.353H329.413ZM324.626 339.759C323.735 339.746 322.851 339.911 322.025 340.245C319.567 341.274 318.267 344.174 318.152 348.819C317.724 365.309 320.825 379.042 322.868 388.116C323.859 391.759 324.51 395.485 324.811 399.248C324.635 404.168 324.211 409.076 323.54 413.952C322.982 418.582 322.411 423.384 322.268 427.199C322.125 431.015 323.025 438.746 323.983 446.762C325.08 454.691 325.772 462.67 326.055 470.669C326.055 481.501 329.441 505.566 330.07 509.881L336.315 509.352C336.158 507.209 335.729 500.578 335.729 495.062C335.729 491.676 337.158 480.058 338.93 466.611C340.545 453.879 342.388 439.46 343.031 431.243C344.232 415.524 350.362 360.151 350.919 355.106C348.676 353.163 333.471 339.759 324.626 339.759Z" fill="#263238"/>
<path d="M337.029 510.01C337.029 510.01 344.646 516.04 347.818 517.941C350.991 519.841 356.707 521.113 356.707 522.385C356.707 523.657 354.163 524.285 354.163 524.285H327.484C327.48 521.734 327.691 519.186 328.112 516.669C328.756 513.811 329.384 510.639 329.384 510.639L337.029 510.01Z" fill="#FFC100"/>
<path d="M354.163 525H327.484C327.294 525 327.112 524.925 326.978 524.791C326.844 524.657 326.769 524.475 326.769 524.285C326.766 521.68 326.986 519.08 327.427 516.512C328.055 513.654 328.684 510.51 328.684 510.51C328.716 510.357 328.795 510.218 328.911 510.113C329.026 510.008 329.172 509.942 329.327 509.924L336.944 509.295C337.124 509.281 337.304 509.337 337.444 509.452C337.515 509.452 345.06 515.469 348.161 517.326C349.654 518.135 351.207 518.827 352.806 519.398C355.564 520.456 357.393 521.156 357.393 522.385C357.393 524.128 354.82 524.857 354.306 524.986L354.163 525ZM328.241 523.571H354.077C354.992 523.328 355.992 522.771 355.992 522.385C354.837 521.692 353.604 521.135 352.32 520.727C350.639 520.137 349.01 519.41 347.447 518.555C344.589 516.812 338.115 511.767 336.815 510.739L330.013 511.31C329.799 512.325 329.327 514.668 328.841 516.826C328.458 519.054 328.257 521.31 328.241 523.571V523.571Z" fill="#263238"/>
<path d="M336.401 515.397L337.029 510.01L329.413 510.639C329.413 510.639 328.956 512.954 328.427 515.397H336.401Z" fill="white"/>
<path d="M336.401 516.112H328.427C328.321 516.113 328.216 516.09 328.119 516.046C328.023 516.001 327.937 515.936 327.87 515.854C327.801 515.772 327.753 515.675 327.728 515.571C327.704 515.467 327.703 515.359 327.727 515.254C328.255 512.811 328.713 510.51 328.713 510.51C328.745 510.357 328.824 510.218 328.939 510.113C329.055 510.008 329.201 509.942 329.356 509.924L336.972 509.295C337.078 509.286 337.184 509.3 337.283 509.337C337.382 509.374 337.471 509.433 337.544 509.51C337.62 509.585 337.677 509.678 337.712 509.779C337.747 509.881 337.758 509.989 337.744 510.096L337.101 515.483C337.08 515.655 336.998 515.813 336.869 515.929C336.74 516.044 336.574 516.109 336.401 516.112ZM329.256 514.683H335.7L336.158 510.796L329.956 511.31C329.87 512.01 329.613 513.268 329.313 514.683H329.256Z" fill="#263238"/>
<path d="M319.896 481.458C319.896 481.458 310.693 478.286 309.421 480.501C308.149 482.716 310.379 503.665 311.336 509.381C312.293 515.097 314.823 521.427 316.409 520.813C317.995 520.199 318.953 500.807 320.21 497.949C321.468 495.091 325.612 488.117 325.612 488.117L319.896 481.458Z" fill="#FFC100"/>
<path d="M316.18 521.556C315.913 521.557 315.65 521.483 315.423 521.342C313.494 520.256 311.436 514.354 310.622 509.495C309.964 505.537 307.292 482.802 308.807 480.144C310.321 477.486 317.838 479.987 320.124 480.772C320.247 480.813 320.356 480.887 320.439 480.987L326.155 487.646C326.252 487.759 326.311 487.9 326.324 488.049C326.336 488.198 326.302 488.346 326.226 488.475C326.226 488.546 322.111 495.463 320.867 498.249C320.096 501.606 319.585 505.017 319.338 508.452C318.267 518.127 317.781 521.013 316.68 521.456C316.522 521.522 316.352 521.556 316.18 521.556V521.556ZM311.608 480.415C310.793 480.415 310.179 480.558 310.05 480.858C308.978 482.73 310.95 502.722 312.036 509.252C313.008 515.097 315.209 519.656 316.095 520.099C316.738 518.912 317.452 512.553 317.924 508.295C318.481 503.322 318.953 499.021 319.567 497.663C320.667 495.191 323.854 489.789 324.74 488.189L319.481 482.001C316.942 481.114 314.292 480.58 311.608 480.415V480.415Z" fill="#263238"/>
<path d="M316.509 480.458C316.852 484.388 317.938 490.332 317.938 490.332L324.411 490.075L325.555 488.118L319.839 481.458C319.839 481.458 318.381 480.93 316.509 480.458Z" fill="white"/>
<path d="M317.995 491.047C317.83 491.05 317.669 490.994 317.54 490.889C317.412 490.785 317.325 490.638 317.295 490.475C317.295 490.475 316.137 484.445 315.795 480.472C315.787 480.357 315.806 480.241 315.85 480.135C315.895 480.028 315.964 479.933 316.052 479.858C316.138 479.786 316.24 479.736 316.349 479.711C316.458 479.687 316.572 479.688 316.68 479.715C318.567 480.187 320.067 480.701 320.124 480.715C320.247 480.756 320.356 480.83 320.439 480.93L326.155 487.589C326.252 487.702 326.311 487.843 326.324 487.992C326.336 488.14 326.302 488.289 326.226 488.418L325.083 490.375C325.026 490.482 324.942 490.572 324.839 490.634C324.736 490.697 324.618 490.731 324.497 490.733L318.024 490.99L317.995 491.047ZM317.324 481.415C317.652 484.431 318.324 488.16 318.581 489.604L324.04 489.375L324.74 488.189L319.481 482.073C319.138 482.001 318.324 481.701 317.324 481.415V481.415Z" fill="#263238"/>
<path d="M313.865 331.056C313.865 331.056 304.991 340.902 304.348 352.32C303.705 363.737 317.038 378.042 322.754 384.044C328.47 390.045 361.151 427.514 361.151 427.514C361.151 427.514 349.719 434.816 344.332 445.919C338.944 457.022 319.896 481.458 319.896 481.458L325.926 490.032C325.926 490.032 364.323 451.649 368.796 447.52C373.269 443.39 383.701 430.7 383.701 428.157C383.701 425.613 368.467 398.662 364.666 388.145C360.865 377.627 339.602 348.804 339.602 348.804C339.602 348.804 326.24 333.914 313.865 331.056Z" fill="#263238"/>
<path d="M325.926 490.733C325.822 490.724 325.72 490.692 325.629 490.64C325.538 490.589 325.459 490.518 325.397 490.432L319.367 481.858C319.278 481.736 319.229 481.589 319.229 481.437C319.229 481.285 319.278 481.138 319.367 481.015C319.553 480.772 338.416 456.522 343.66 445.605C348.376 435.888 357.464 429.157 360.051 427.371C355.764 422.498 327.441 390.06 322.211 384.501C316.981 378.942 302.948 364.166 303.634 352.234C304.277 340.688 312.965 330.942 313.337 330.542C313.422 330.444 313.532 330.371 313.655 330.33C313.778 330.29 313.91 330.284 314.037 330.313C326.483 333.171 339.559 347.69 340.102 348.304C341.016 349.547 361.537 377.442 365.309 387.888C367.281 393.303 372.326 403.178 376.741 411.88C381.743 421.626 384.344 426.785 384.344 428.1C384.344 431.1 373.326 444.147 369.196 447.977C364.823 452.05 326.769 490.104 326.326 490.475C326.229 490.607 326.086 490.699 325.926 490.733V490.733ZM320.782 481.473L326.026 488.918C330.928 484.016 364.18 450.778 368.267 446.977C373.197 442.404 382.957 430.186 382.957 428.142C382.957 427.056 378.985 419.354 375.512 412.566C371.04 403.835 365.967 393.918 363.966 388.416C360.236 378.156 339.201 349.533 339.001 349.247C338.801 348.962 326.055 334.814 314.123 331.856C312.694 333.614 305.549 342.445 305.063 352.363C304.434 363.68 318.124 378.085 323.268 383.558C328.984 389.531 361.351 426.671 361.68 427.042C361.749 427.119 361.8 427.21 361.829 427.309C361.859 427.408 361.866 427.512 361.851 427.614C361.837 427.714 361.801 427.811 361.747 427.897C361.693 427.983 361.621 428.057 361.537 428.114C361.422 428.114 350.205 435.445 344.975 446.234C339.93 456.608 323.397 478.1 320.782 481.473V481.473Z" fill="#263238"/>
<path d="M345.689 406.522C345.59 406.522 345.492 406.502 345.401 406.463C345.31 406.424 345.228 406.366 345.16 406.293L343.631 404.65C343.564 404.583 343.511 404.504 343.475 404.417C343.439 404.33 343.42 404.237 343.42 404.142C343.42 404.048 343.439 403.955 343.475 403.868C343.511 403.781 343.564 403.702 343.631 403.635C343.697 403.569 343.774 403.516 343.86 403.48C343.946 403.443 344.038 403.425 344.132 403.425C344.225 403.425 344.317 403.443 344.403 403.48C344.489 403.516 344.567 403.569 344.632 403.635L346.175 405.278C346.306 405.412 346.379 405.592 346.379 405.779C346.379 405.966 346.306 406.145 346.175 406.279C346.05 406.419 345.876 406.506 345.689 406.522V406.522Z" fill="white"/>
<path d="M341.774 402.292C341.675 402.291 341.577 402.27 341.486 402.231C341.395 402.192 341.313 402.135 341.245 402.063L324.483 384.029C324.416 383.963 324.363 383.884 324.326 383.797C324.29 383.71 324.271 383.616 324.271 383.522C324.271 383.428 324.29 383.334 324.326 383.247C324.363 383.16 324.416 383.081 324.483 383.015C324.616 382.884 324.796 382.81 324.983 382.81C325.17 382.81 325.35 382.884 325.483 383.015L342.245 401.049C342.312 401.114 342.365 401.192 342.401 401.278C342.437 401.363 342.455 401.456 342.455 401.549C342.455 401.642 342.437 401.734 342.401 401.82C342.365 401.906 342.312 401.984 342.245 402.049C342.124 402.186 341.956 402.273 341.774 402.292Z" fill="white"/>
<path d="M325.626 472.999C325.433 472.998 325.248 472.921 325.112 472.784C324.98 472.648 324.906 472.466 324.906 472.277C324.906 472.088 324.98 471.906 325.112 471.77C325.24 471.655 325.683 471.141 327.269 469.098C327.389 468.961 327.557 468.875 327.738 468.857C327.919 468.84 328.1 468.892 328.244 469.003C328.388 469.114 328.484 469.276 328.512 469.455C328.541 469.635 328.5 469.819 328.398 469.969C326.712 472.141 326.298 472.613 326.126 472.827C325.987 472.946 325.809 473.008 325.626 472.999V472.999Z" fill="white"/>
<path d="M330.813 466.382C330.649 466.401 330.484 466.366 330.342 466.282C330.195 466.164 330.1 465.995 330.076 465.808C330.052 465.622 330.101 465.433 330.213 465.282C335 459.009 341.331 450.592 341.331 450.592L342.474 451.449C342.474 451.449 336.143 459.881 331.356 466.154C331.287 466.228 331.202 466.286 331.109 466.325C331.015 466.365 330.915 466.384 330.813 466.382V466.382Z" fill="white"/>
<path d="M388.431 369.11C388.431 369.11 394.775 375.77 396.361 378.942C397.948 382.114 400.491 388.774 398.591 389.088C396.69 389.402 395.418 383.372 395.418 383.372C395.418 383.372 396.676 389.088 396.047 390.66C395.418 392.232 393.504 384.944 393.504 384.944C393.504 384.944 393.832 391.603 392.875 390.66C391.917 389.717 390.66 383.686 390.66 383.686C390.66 383.686 390.017 390.988 389.074 389.402C388.13 387.816 388.116 383.372 388.116 383.372C386.354 380.724 384.764 377.965 383.358 375.112C382.562 373.644 382.03 372.048 381.786 370.397L388.431 369.11Z" fill="white"/>
<path d="M395.818 391.646C395.504 391.646 395.032 391.646 394.232 389.602C394.061 391.174 393.675 391.331 393.432 391.446C393.261 391.522 393.07 391.54 392.887 391.499C392.704 391.458 392.54 391.359 392.417 391.217C391.695 390.127 391.186 388.91 390.917 387.63C390.431 390.16 389.888 390.288 389.574 390.36C389.358 390.404 389.134 390.373 388.939 390.271C388.744 390.17 388.589 390.004 388.502 389.802C387.559 388.259 387.459 384.629 387.445 383.629C385.705 381.007 384.134 378.277 382.743 375.455C381.887 373.885 381.33 372.17 381.1 370.397C381.1 370.232 381.157 370.072 381.261 369.945C381.365 369.817 381.51 369.729 381.671 369.696L388.345 368.425C388.461 368.404 388.581 368.413 388.693 368.451C388.806 368.488 388.907 368.553 388.988 368.639C389.259 368.91 395.433 375.412 397.047 378.642C397.047 378.713 400.991 386.659 399.777 389.045C399.678 389.245 399.533 389.419 399.354 389.553C399.175 389.687 398.968 389.777 398.748 389.817C398.409 389.854 398.067 389.8 397.756 389.662C397.445 389.524 397.176 389.306 396.976 389.031C397.02 389.682 396.942 390.337 396.747 390.96C396.69 391.161 396.568 391.337 396.4 391.462C396.232 391.586 396.027 391.651 395.818 391.646V391.646ZM393.503 384.286C393.662 384.284 393.817 384.335 393.944 384.431C394.071 384.526 394.162 384.662 394.204 384.815C394.562 386.238 394.996 387.64 395.504 389.016C395.393 387.276 395.149 385.547 394.775 383.843C394.77 383.748 394.77 383.653 394.775 383.558C394.735 383.368 394.773 383.171 394.878 383.008C394.984 382.846 395.15 382.733 395.34 382.693C395.529 382.653 395.727 382.69 395.889 382.796C396.051 382.902 396.164 383.068 396.204 383.258C396.214 383.343 396.214 383.429 396.204 383.515C396.79 386.13 397.905 388.473 398.505 388.416C399.019 387.845 397.833 383.429 395.761 379.285C394.432 376.613 389.431 371.197 388.23 369.911L382.629 370.968C382.975 372.313 383.453 373.62 384.058 374.869C385.453 377.68 387.023 380.4 388.759 383.015C388.844 383.131 388.889 383.271 388.888 383.415C388.887 384.989 389.045 386.559 389.359 388.102C389.663 386.64 389.877 385.16 390.002 383.672C390.016 383.502 390.089 383.342 390.21 383.222C390.33 383.101 390.49 383.028 390.66 383.015C390.834 382.994 391.009 383.043 391.148 383.149C391.286 383.256 391.378 383.413 391.403 383.586C391.771 385.414 392.249 387.217 392.832 388.988C392.832 387.916 392.832 386.387 392.832 385.03C392.826 384.852 392.885 384.679 392.999 384.542C393.112 384.405 393.271 384.314 393.446 384.286H393.503Z" fill="#263238"/>
<path d="M387.859 375.555C387.751 376.715 388.06 377.875 388.731 378.828C389.871 379.68 391.153 380.323 392.517 380.728C392.517 380.728 396.662 386.944 396.662 384.872C396.204 381.36 394.835 378.03 392.689 375.212" fill="white"/>
<path d="M396.433 386.016C395.904 386.016 394.832 385.458 392.06 381.328C390.665 380.915 389.36 380.241 388.216 379.342C387.394 378.238 387.012 376.868 387.144 375.498C387.152 375.404 387.177 375.313 387.22 375.229C387.263 375.145 387.322 375.07 387.394 375.009C387.465 374.948 387.548 374.901 387.638 374.873C387.728 374.844 387.822 374.833 387.916 374.841C388.01 374.848 388.102 374.874 388.186 374.916C388.27 374.959 388.344 375.018 388.405 375.09C388.466 375.162 388.513 375.245 388.542 375.334C388.57 375.424 388.581 375.519 388.573 375.612C388.468 376.566 388.701 377.527 389.231 378.328C390.29 379.1 391.474 379.685 392.732 380.057C392.893 380.098 393.031 380.201 393.118 380.342C393.95 381.604 394.862 382.811 395.847 383.958C395.404 381.557 393.718 377.241 392.189 375.712C392.054 375.578 391.979 375.395 391.979 375.205C391.979 375.015 392.054 374.832 392.189 374.698C392.323 374.563 392.506 374.488 392.696 374.488C392.886 374.488 393.069 374.563 393.203 374.698C395.275 376.784 397.376 382.729 397.376 384.872C397.409 385.105 397.36 385.342 397.237 385.543C397.115 385.744 396.927 385.895 396.704 385.973C396.618 386.004 396.525 386.019 396.433 386.016Z" fill="#263238"/>
<path d="M369.711 321.853C369.711 321.853 376.698 335.815 379.228 343.117C381.757 350.419 389.702 368.496 389.702 368.496L382.086 372.94C382.086 372.94 372.569 358.979 368.439 351.677C366.144 347.697 364.129 343.562 362.408 339.302L369.711 321.853Z" fill="#FFC100"/>
<path d="M382.086 373.655C381.97 373.655 381.855 373.626 381.753 373.571C381.651 373.517 381.564 373.437 381.5 373.34C381.4 373.197 371.911 359.279 367.824 352.034C365.509 348.023 363.48 343.855 361.751 339.559C361.716 339.475 361.698 339.385 361.698 339.294C361.698 339.204 361.716 339.114 361.751 339.03L369.053 321.582C369.108 321.458 369.195 321.351 369.306 321.273C369.417 321.195 369.547 321.148 369.682 321.139C369.82 321.138 369.955 321.175 370.074 321.246C370.192 321.316 370.289 321.418 370.354 321.539C370.425 321.682 377.384 335.629 379.899 342.888C382.414 350.148 390.274 368.039 390.36 368.21C390.429 368.371 390.436 368.551 390.381 368.717C390.325 368.883 390.211 369.023 390.06 369.11L382.443 373.555C382.336 373.622 382.212 373.657 382.086 373.655V373.655ZM363.18 339.359C364.877 343.489 366.844 347.504 369.068 351.377C372.669 357.75 380.5 369.368 382.3 372.026L388.788 368.239C387.359 365.081 380.814 349.89 378.556 343.388C376.527 337.572 371.597 327.341 369.768 323.625L363.18 339.359Z" fill="#263238"/>
<path d="M366.91 342.817L365.638 357.678C365.638 357.678 355.478 354.192 353.577 352.92C351.677 351.648 351.991 343.088 353.892 333.243C355.792 323.397 367.853 294.86 367.853 294.86L366.91 342.817Z" fill="#263238"/>
<path d="M365.638 358.45C365.563 358.465 365.485 358.465 365.409 358.45C364.981 358.307 355.135 354.921 353.177 353.62C350.605 351.891 351.577 341.545 353.177 333.214C355.078 323.411 366.695 295.846 367.181 294.631C367.249 294.479 367.367 294.356 367.516 294.28C367.664 294.205 367.833 294.182 367.996 294.217C368.157 294.253 368.301 294.344 368.402 294.474C368.504 294.604 368.557 294.766 368.553 294.931L367.61 342.831L366.338 357.736C366.328 357.845 366.293 357.951 366.236 358.045C366.179 358.139 366.102 358.219 366.01 358.279C365.904 358.369 365.775 358.428 365.638 358.45V358.45ZM367.067 298.675C363.809 306.592 356.078 325.826 354.606 333.443C352.305 345.26 352.863 351.634 353.977 352.377C357.559 354.069 361.244 355.534 365.009 356.764L366.195 342.788L367.067 298.675Z" fill="#263238"/>
<path d="M360.194 257.448C360.194 257.448 366.853 270.781 367.496 276.168C368.139 281.556 370.354 291.402 367.81 300.919C365.266 310.436 359.236 324.397 358.293 335.5C357.35 346.604 355.121 358.979 355.121 358.979L351.948 365.009L346.232 355.806V363.737C342.855 360.343 339.005 357.455 334.8 355.163C327.812 351.348 318.938 338.973 318.938 338.973L315.437 335.486C315.437 335.486 330.67 274.882 331.942 266.637C333.214 258.392 341.774 255.534 346.847 254.576C351.92 253.619 360.194 257.448 360.194 257.448Z" fill="white"/>
<path d="M351.948 365.724C351.825 365.724 351.703 365.693 351.596 365.633C351.488 365.573 351.398 365.486 351.334 365.381L346.947 358.307V363.737C346.946 363.882 346.902 364.023 346.82 364.143C346.739 364.263 346.624 364.355 346.489 364.409C346.354 364.457 346.208 364.465 346.069 364.432C345.93 364.399 345.803 364.327 345.703 364.223C342.379 360.897 338.597 358.063 334.472 355.807C327.427 351.962 318.753 339.916 318.367 339.402L314.951 336.001C314.863 335.915 314.8 335.808 314.767 335.69C314.734 335.572 314.734 335.447 314.766 335.329C314.909 334.714 329.999 274.668 331.242 266.537C332.6 257.806 341.531 254.862 346.732 253.89C351.934 252.919 360.151 256.634 360.494 256.748C360.646 256.81 360.768 256.928 360.837 257.077C361.108 257.62 367.553 270.567 368.196 276.025C368.31 276.911 368.453 277.926 368.61 279.041C369.425 284.585 370.654 292.959 368.496 301.047C367.667 304.177 366.453 307.778 365.181 311.593C362.58 319.338 359.636 328.113 359.007 335.5C358.064 346.518 355.849 358.922 355.821 359.05C355.806 359.12 355.782 359.187 355.749 359.25L352.577 365.281C352.517 365.393 352.429 365.488 352.321 365.556C352.213 365.623 352.09 365.662 351.962 365.667L351.948 365.724ZM346.232 355.092C346.353 355.092 346.472 355.124 346.578 355.184C346.683 355.244 346.771 355.331 346.832 355.435L351.891 363.566L354.435 358.75C354.649 357.507 356.692 345.889 357.578 335.443C358.221 327.884 361.194 319.01 363.823 311.15C365.095 307.363 366.295 303.777 367.124 300.69C369.196 292.888 367.996 284.685 367.196 279.255C367.038 278.14 366.881 277.112 366.781 276.211C366.21 271.381 360.536 259.735 359.636 257.949C358.293 257.363 351.305 254.433 346.975 255.248C342.131 256.162 333.843 258.849 332.685 266.68C331.528 274.511 317.709 329.556 316.28 335.2L319.481 338.401C319.639 338.616 328.427 350.776 335.2 354.463C338.95 356.521 342.43 359.036 345.561 361.951V355.721C345.561 355.566 345.611 355.416 345.703 355.292C345.796 355.168 345.927 355.078 346.075 355.035L346.232 355.092Z" fill="#263238"/>
<path d="M361.194 264.136C361.194 264.136 365.195 272.496 364.752 280.17C364.653 284.246 364.844 288.324 365.324 292.373C365.324 292.373 364.052 324.097 365.009 329.527C365.967 334.957 366.91 342.845 366.91 342.845C366.91 342.845 369.439 310.164 371.025 303.191C372.612 296.217 374.841 289.544 372.297 281.927C369.753 274.311 367.853 266.708 365.324 263.536C363.425 261.367 361.168 259.54 358.65 258.134L361.194 264.136Z" fill="#FFC100"/>
<path d="M366.91 343.531C366.733 343.536 366.562 343.474 366.429 343.357C366.297 343.24 366.213 343.078 366.195 342.903C366.195 342.831 365.238 334.929 364.295 329.627C363.352 324.326 364.552 293.645 364.609 292.345C364.121 288.291 363.93 284.208 364.037 280.127C364.466 272.725 360.594 264.522 360.551 264.408L358.007 258.377C357.951 258.241 357.939 258.091 357.971 257.947C358.004 257.803 358.081 257.673 358.19 257.575C358.3 257.476 358.437 257.414 358.583 257.396C358.73 257.379 358.878 257.407 359.007 257.477C361.608 258.922 363.939 260.808 365.895 263.05C367.91 265.579 369.468 270.552 371.268 276.297C371.826 278.055 372.383 279.869 372.997 281.684C375.284 288.544 373.798 294.731 372.354 300.733C372.14 301.59 371.94 302.448 371.74 303.319C370.182 310.164 367.653 342.56 367.639 342.874C367.628 343.052 367.549 343.22 367.419 343.342C367.289 343.464 367.117 343.532 366.938 343.531H366.91ZM361.851 263.836C362.094 264.379 365.909 272.524 365.466 280.212C365.372 284.246 365.558 288.28 366.024 292.287C366.024 292.716 364.781 324.111 365.709 329.37C366.067 331.413 366.424 333.828 366.738 336.043C367.567 326.04 369.182 308.064 370.339 303.005C370.539 302.133 370.74 301.262 370.954 300.39C372.383 294.331 373.812 288.601 371.626 282.127C371.011 280.312 370.439 278.483 369.896 276.726C368.21 271.338 366.61 266.265 364.766 263.95C363.441 262.384 361.896 261.017 360.179 259.892L361.851 263.836Z" fill="#263238"/>
<path d="M355.749 269.824L354.649 276.883C354.649 276.883 345.275 266.966 345.603 260.935C345.932 254.905 347.19 250.789 351.948 249.503C356.707 248.217 360.065 258.52 361.022 263.908C361.98 269.295 358.822 275.768 358.822 275.768L355.749 269.824Z" fill="white"/>
<path d="M354.635 277.655C354.44 277.649 354.255 277.567 354.12 277.426C353.734 277.011 344.546 267.223 344.875 260.964C345.16 255.562 346.189 250.361 351.748 248.889C352.292 248.741 352.862 248.715 353.418 248.811C353.973 248.907 354.501 249.124 354.963 249.446C358.707 251.833 361.022 259.921 361.708 263.865C362.694 269.424 359.593 275.883 359.45 276.154C359.394 276.273 359.305 276.374 359.194 276.445C359.082 276.516 358.954 276.553 358.822 276.554C358.688 276.561 358.556 276.528 358.441 276.459C358.327 276.391 358.235 276.289 358.179 276.168L356.064 272.096L355.306 276.997C355.284 277.129 355.225 277.252 355.137 277.353C355.048 277.454 354.934 277.529 354.806 277.569L354.635 277.655ZM352.734 250.175C352.526 250.175 352.32 250.204 352.12 250.261C348.276 251.289 346.647 254.305 346.304 261.035C346.061 265.551 351.805 272.624 354.163 275.325L355.035 269.752C355.057 269.605 355.126 269.469 355.232 269.363C355.337 269.258 355.473 269.189 355.621 269.166C355.77 269.14 355.924 269.162 356.06 269.228C356.196 269.295 356.308 269.404 356.378 269.538L358.75 274.153C359.579 272.01 360.951 267.752 360.308 264.15C359.536 259.863 357.278 252.719 354.206 250.689C353.786 250.361 353.28 250.163 352.748 250.118L352.734 250.175Z" fill="#263238"/>
<path d="M367.496 248.56C367.496 248.56 360.822 259.349 358.607 264.108C357.761 266.064 356.807 267.973 355.749 269.824C355.749 269.824 351.948 257.448 351.948 253.647C351.948 249.846 352.263 244.116 352.263 244.116L359.879 233.97L367.496 248.56Z" fill="white"/>
<path d="M355.749 270.51H355.649C355.516 270.492 355.39 270.437 355.286 270.351C355.183 270.265 355.105 270.152 355.063 270.024C354.906 269.509 351.234 257.491 351.234 253.633C351.234 249.775 351.548 244.13 351.548 244.073C351.552 243.928 351.602 243.788 351.691 243.673L359.308 233.527C359.38 233.43 359.475 233.353 359.585 233.303C359.695 233.253 359.816 233.232 359.936 233.241C360.056 233.255 360.17 233.297 360.27 233.364C360.369 233.431 360.451 233.521 360.508 233.627L368.124 248.217C368.184 248.327 368.216 248.45 368.216 248.574C368.216 248.699 368.184 248.822 368.124 248.932C368.124 249.032 361.465 259.735 359.279 264.393C358.43 266.381 357.476 268.323 356.421 270.209C356.346 270.315 356.244 270.398 356.126 270.45C356.008 270.503 355.878 270.524 355.749 270.51ZM352.963 244.345C352.963 245.431 352.663 250.289 352.663 253.619C352.663 256.477 354.921 264.479 355.949 267.909C356.378 267.051 357.021 265.737 357.964 263.736C359.979 259.449 365.495 250.375 366.667 248.46L359.765 235.228L352.963 244.345Z" fill="#263238"/>
<path d="M376.698 208.905C376.698 208.905 385.573 217.151 386.844 226.982C387.419 231.197 386.657 235.486 384.665 239.244C382.673 243.002 379.552 246.041 375.741 247.931C369.082 251.104 364.309 250.789 361.151 245.388C357.993 239.986 361.465 217.151 366.224 211.763C367.444 210.241 369.115 209.145 370.997 208.632C372.878 208.118 374.874 208.214 376.698 208.905Z" fill="#263238"/>
<path d="M368.382 250.675C366.744 250.675 365.14 250.214 363.753 249.345C362.365 248.475 361.25 247.233 360.536 245.759C357.221 240.143 360.694 216.951 365.681 211.292C367.007 209.662 368.812 208.49 370.841 207.944C372.87 207.397 375.019 207.504 376.984 208.248C377.059 208.277 377.127 208.321 377.184 208.377C377.556 208.72 386.273 216.951 387.559 226.954C388.125 231.304 387.323 235.723 385.264 239.597C383.205 243.471 379.992 246.609 376.07 248.574C373.694 249.836 371.068 250.553 368.382 250.675V250.675ZM373.426 209.063C372.145 209.076 370.882 209.373 369.728 209.931C368.575 210.489 367.559 211.296 366.753 212.292C362.123 217.537 358.722 239.915 361.765 245.088C364.623 249.889 368.667 250.561 375.427 247.345C379.091 245.498 382.088 242.553 383.996 238.92C385.905 235.287 386.631 231.148 386.073 227.082C384.929 218.137 377.17 210.406 376.241 209.52C375.338 209.199 374.384 209.044 373.426 209.063V209.063Z" fill="#263238"/>
<path d="M373.212 213.35C373.212 213.35 378.299 216.208 378.299 225.396C378.299 230.483 374.483 241.901 373.855 245.402C373.709 246.174 373.412 246.909 372.982 247.566C372.552 248.223 371.997 248.788 371.347 249.23C370.698 249.672 369.969 249.982 369.2 250.141C368.431 250.301 367.638 250.308 366.867 250.161C364.009 249.532 356.721 242.873 355.135 241.587C353.549 240.3 351.648 235.242 351.962 227.625C352.277 220.009 361.151 208.591 373.212 213.35Z" fill="white"/>
<path d="M367.982 250.989C367.549 250.991 367.117 250.943 366.695 250.847C364.38 250.332 359.979 246.674 356.021 243.287C355.435 242.773 354.949 242.373 354.678 242.144C352.72 240.586 350.919 235.085 351.234 227.597C351.501 224.851 352.381 222.2 353.811 219.84C355.241 217.48 357.183 215.472 359.493 213.964C361.533 212.607 363.879 211.778 366.319 211.554C368.758 211.329 371.216 211.716 373.469 212.678H373.555C373.769 212.807 378.999 215.85 378.999 225.353C378.999 228.883 377.284 235.113 375.913 240.115C375.284 242.401 374.741 244.402 374.484 245.473C374.32 246.344 373.983 247.172 373.492 247.909C373.001 248.645 372.366 249.275 371.626 249.76C370.557 250.517 369.29 250.945 367.982 250.989ZM367.567 212.935C364.972 212.95 362.438 213.725 360.279 215.164C358.167 216.556 356.389 218.397 355.072 220.556C353.756 222.715 352.933 225.139 352.663 227.654C352.348 235.027 354.177 239.915 355.521 241.029C355.821 241.258 356.307 241.672 356.95 242.201C359.508 244.402 364.838 248.975 366.953 249.46C368.322 249.711 369.735 249.41 370.884 248.623C372.032 247.836 372.823 246.627 373.083 245.259C373.283 244.102 373.84 242.101 374.512 239.786C375.798 235.128 377.556 228.74 377.556 225.396C377.556 217.122 373.269 214.25 372.869 213.964C371.182 213.29 369.383 212.94 367.567 212.935V212.935Z" fill="#263238"/>
<path d="M375.741 211.449C369.323 219.106 363.391 227.158 357.979 235.556C350.676 247.303 350.991 251.104 344.96 248.246C338.93 245.388 324.026 230.498 325.926 220.009C327.827 209.52 333.543 193.672 354.163 193.672C374.784 193.672 381.457 201.918 375.741 211.449Z" fill="#263238"/>
<path d="M348.09 249.861C346.89 249.791 345.719 249.459 344.66 248.889C338.816 246.117 323.225 230.955 325.226 219.88C328.427 202.275 338.43 192.958 354.163 192.958C366.167 192.958 374.383 195.816 377.284 200.917C379.071 204.061 378.713 207.819 376.355 211.806L376.284 211.906C369.899 219.546 363.986 227.568 358.579 235.928C356.821 238.786 355.506 241.144 354.435 243.073C351.977 247.474 350.648 249.861 348.09 249.861ZM354.163 194.387C339.001 194.387 329.742 203.046 326.626 220.109C324.854 229.84 338.959 244.587 345.275 247.574C349.233 249.446 349.833 248.36 353.191 242.33C354.263 240.401 355.592 238.043 357.364 235.185C362.794 226.773 368.735 218.703 375.155 211.02C377.241 207.534 377.542 204.275 376.041 201.617C373.397 196.959 365.638 194.387 354.163 194.387V194.387Z" fill="#263238"/>
<path d="M346.861 254.59C346.861 254.59 348.776 269.195 351.634 277.454C353.404 282.526 355.856 287.334 358.922 291.744C358.922 291.744 350.991 310.464 343.689 323.182C336.386 335.901 327.827 351.419 327.827 351.419L310.336 336.129C310.336 336.129 320.81 311.708 321.125 305.363C321.439 299.018 323.668 257.448 326.841 257.134C330.013 256.82 346.861 254.59 346.861 254.59Z" fill="#FFC100"/>
<path d="M327.827 352.077C327.654 352.079 327.486 352.018 327.355 351.905L309.907 336.672C309.796 336.572 309.719 336.44 309.686 336.294C309.653 336.149 309.665 335.996 309.721 335.858C309.821 335.615 320.153 311.465 320.453 305.32C322.068 273.139 324.197 256.734 326.812 256.42C329.927 256.105 346.604 253.905 346.818 253.89C346.911 253.875 347.007 253.879 347.098 253.904C347.189 253.929 347.274 253.973 347.347 254.033C347.493 254.151 347.589 254.319 347.618 254.505C347.618 254.648 349.547 269.123 352.348 277.197C354.09 282.192 356.493 286.931 359.493 291.287C359.569 291.388 359.618 291.507 359.633 291.633C359.648 291.758 359.629 291.886 359.579 292.002C359.579 292.187 351.548 310.893 344.317 323.44C337.087 335.986 328.598 351.505 328.455 351.662C328.408 351.759 328.338 351.842 328.251 351.905C328.163 351.967 328.062 352.007 327.955 352.02L327.827 352.077ZM311.236 335.943L327.627 350.233C329.456 346.918 336.786 333.7 343.074 322.754C349.705 311.222 356.964 294.474 358.107 291.787C355.118 287.409 352.715 282.658 350.962 277.655C348.476 270.51 346.675 258.42 346.275 255.376C343.003 255.805 329.784 257.549 326.969 257.834C325.169 259.263 323.025 282.828 321.896 305.377C321.582 311.379 312.751 332.385 311.236 335.943V335.943Z" fill="#263238"/>
<path d="M304.262 310.879L331.771 260.507L335.415 256.22L340.545 255.619C338.363 257.778 336.383 260.131 334.629 262.65C333.2 265.151 307.835 311.236 307.835 311.236L304.262 310.879Z" fill="white"/>
<path d="M307.835 311.95H307.764L304.191 311.593C304.073 311.58 303.961 311.538 303.864 311.471C303.766 311.403 303.687 311.313 303.634 311.207C303.577 311.104 303.548 310.989 303.548 310.872C303.548 310.754 303.577 310.639 303.634 310.536L331.142 260.164L331.228 260.035L334.872 255.748C334.993 255.619 335.154 255.533 335.329 255.505L340.459 254.905C340.606 254.888 340.755 254.918 340.884 254.989C341.014 255.061 341.118 255.171 341.183 255.304C341.247 255.438 341.268 255.588 341.244 255.734C341.219 255.88 341.149 256.015 341.045 256.119C338.914 258.226 336.972 260.517 335.243 262.964C333.814 265.422 308.721 311.079 308.464 311.55C308.405 311.667 308.315 311.766 308.204 311.837C308.094 311.907 307.966 311.947 307.835 311.95V311.95ZM305.406 310.279L307.478 310.521C310.021 305.92 332.714 264.693 334.057 262.336C335.409 260.283 336.96 258.368 338.687 256.62L335.829 256.948L332.414 260.935L305.406 310.279Z" fill="#263238"/>
<path d="M296.646 377.584C296.646 377.584 294.502 386.701 294.245 388.045C293.988 389.388 289.958 393.403 289.415 395.818C288.872 398.233 288.886 400.634 287.815 399.834C287.305 399.308 286.92 398.674 286.687 397.979C286.455 397.284 286.381 396.546 286.471 395.818C286.471 395.818 277.626 391.531 277.354 389.917C277.083 388.302 290.758 377.327 290.758 377.327L296.646 377.584Z" fill="white"/>
<path d="M288.186 400.706C287.893 400.699 287.611 400.593 287.386 400.406C286.835 399.862 286.4 399.211 286.107 398.494C285.815 397.777 285.671 397.007 285.685 396.233C282.227 394.532 276.926 391.674 276.654 390.031C276.426 388.702 281.027 384.229 290.315 376.77C290.378 376.711 290.452 376.666 290.534 376.639C290.615 376.612 290.702 376.603 290.787 376.613L296.689 376.884C296.792 376.884 296.894 376.908 296.986 376.955C297.078 377.002 297.158 377.071 297.218 377.156C297.283 377.239 297.329 377.337 297.351 377.441C297.373 377.545 297.372 377.653 297.346 377.756C297.346 377.842 295.203 386.873 294.945 388.188C294.476 389.358 293.798 390.432 292.945 391.36C291.746 392.727 290.781 394.281 290.087 395.961C289.958 396.562 289.858 397.147 289.772 397.69C289.501 399.277 289.329 400.32 288.543 400.634C288.43 400.68 288.309 400.705 288.186 400.706V400.706ZM278.098 389.845C278.583 390.746 282.913 393.289 286.786 395.175C286.94 395.25 287.061 395.378 287.127 395.536C287.193 395.694 287.199 395.871 287.143 396.033C287.082 397.128 287.405 398.209 288.058 399.091C288.203 398.551 288.313 398.002 288.386 397.447C288.486 396.89 288.586 396.276 288.715 395.661C289.416 393.788 290.447 392.055 291.759 390.545C292.44 389.75 293.025 388.877 293.502 387.945C293.716 386.83 295.174 380.6 295.717 378.313L290.959 378.085C284.957 382.915 278.626 388.531 278.098 389.845Z" fill="#263238"/>
<path d="M286.471 395.818C286.908 393.178 287.813 390.638 289.144 388.316Z" fill="white"/>
<path d="M286.471 396.533H286.357C286.263 396.519 286.173 396.487 286.092 396.437C286.011 396.387 285.941 396.322 285.886 396.244C285.832 396.167 285.793 396.079 285.773 395.986C285.754 395.893 285.753 395.797 285.771 395.704C286.215 392.959 287.159 390.319 288.558 387.916C288.612 387.839 288.681 387.773 288.761 387.723C288.84 387.672 288.929 387.638 289.022 387.622C289.115 387.606 289.21 387.609 289.302 387.63C289.394 387.651 289.481 387.69 289.558 387.745C289.635 387.797 289.7 387.865 289.751 387.944C289.801 388.022 289.835 388.11 289.851 388.202C289.867 388.293 289.865 388.387 289.844 388.478C289.823 388.569 289.784 388.655 289.73 388.731C288.472 390.947 287.607 393.365 287.172 395.876C287.157 396.053 287.078 396.218 286.948 396.339C286.819 396.461 286.649 396.53 286.471 396.533V396.533Z" fill="#263238"/>
<path d="M301.69 310.393L333.643 314.494L326.341 362.894L315.38 363.809L285.7 347.375L301.69 310.393Z" fill="white"/>
<path d="M315.38 364.523C315.259 364.519 315.141 364.485 315.037 364.423L285.357 347.99C285.203 347.905 285.087 347.765 285.031 347.598C284.975 347.432 284.985 347.25 285.057 347.09L301.033 310.107C301.094 309.965 301.199 309.846 301.333 309.769C301.467 309.692 301.622 309.66 301.776 309.678L333.728 313.794C333.919 313.819 334.093 313.917 334.214 314.065C334.326 314.223 334.372 314.418 334.343 314.608L327.041 362.994C327.019 363.154 326.943 363.302 326.826 363.414C326.71 363.525 326.559 363.594 326.398 363.609L315.437 364.509L315.38 364.523ZM286.614 347.061L315.537 363.08L325.712 362.223L332.857 315.066L302.162 311.122L286.614 347.061Z" fill="#263238"/>
<path d="M324.969 314.037L315.38 363.809L326.341 362.894L333.643 314.494L324.969 314.037Z" fill="white"/>
<path d="M315.38 364.523C315.28 364.524 315.18 364.503 315.089 364.461C314.997 364.419 314.916 364.357 314.851 364.28C314.776 364.199 314.721 364.101 314.692 363.994C314.662 363.887 314.658 363.775 314.68 363.666L324.268 313.908C324.303 313.739 324.397 313.589 324.533 313.484C324.67 313.378 324.84 313.326 325.012 313.337L333.686 313.794C333.785 313.796 333.883 313.82 333.972 313.865C334.061 313.909 334.139 313.973 334.2 314.051C334.265 314.127 334.311 314.217 334.336 314.313C334.36 314.41 334.363 314.511 334.343 314.608L327.041 362.994C327.019 363.154 326.943 363.302 326.826 363.414C326.71 363.525 326.559 363.594 326.398 363.609L315.437 364.509L315.38 364.523ZM325.555 314.794L316.266 363.009L325.712 362.223L332.857 315.166L325.555 314.794Z" fill="#263238"/>
<path d="M335.415 256.22C335.415 256.22 344.146 264.693 339.116 279.298C334.086 293.902 324.969 313.994 324.969 313.994H329.527L344.832 274.468C345.639 270.773 345.391 266.926 344.117 263.365C343.18 260.673 341.984 258.079 340.545 255.619L335.415 256.22Z" fill="white"/>
<path d="M329.527 314.808H324.969C324.85 314.81 324.734 314.782 324.629 314.727C324.524 314.672 324.435 314.592 324.368 314.494C324.31 314.389 324.279 314.271 324.279 314.151C324.279 314.031 324.31 313.913 324.368 313.808C324.454 313.608 333.528 293.588 338.487 279.169C343.303 265.151 335.043 256.905 334.957 256.834C334.858 256.74 334.788 256.62 334.755 256.488C334.723 256.355 334.728 256.216 334.772 256.087C334.815 255.958 334.895 255.844 335.001 255.758C335.108 255.673 335.236 255.62 335.372 255.605L340.502 255.005C340.632 254.992 340.763 255.015 340.881 255.07C340.999 255.126 341.1 255.212 341.173 255.319C342.641 257.831 343.866 260.477 344.832 263.222C346.166 266.913 346.424 270.907 345.575 274.739L330.199 314.308C330.156 314.453 330.067 314.58 329.946 314.67C329.825 314.76 329.678 314.809 329.527 314.808V314.808ZM326.055 313.379H329.027L344.16 274.311C344.899 270.782 344.652 267.119 343.446 263.722C342.537 261.228 341.444 258.807 340.173 256.477L336.829 256.877C338.987 259.649 343.889 267.723 339.802 279.641C335.458 292.187 327.984 309.093 326.055 313.379Z" fill="#263238"/>
<path d="M337.672 256.22C337.672 256.22 323.068 256.22 322.754 258.449C322.439 260.678 309.421 312.751 307.835 315.609C306.249 318.467 300.233 327.67 298.961 334.643C297.689 341.617 289.444 378.113 289.444 378.113L298.318 379.385C298.318 379.385 315.78 341.002 317.366 334.329C318.953 327.655 321.168 314.98 321.168 314.98C321.168 314.98 341.474 273.725 341.173 269.924C341.02 267.763 340.592 265.631 339.902 263.579" fill="#FFC100"/>
<path d="M298.318 379.999H298.218L289.344 378.728C289.245 378.713 289.149 378.679 289.064 378.628C288.978 378.576 288.903 378.508 288.844 378.428C288.74 378.256 288.704 378.052 288.744 377.856C288.829 377.499 297.003 341.302 298.261 334.414C299.347 328.455 303.762 321.01 306.134 317.009C306.592 316.252 306.963 315.58 307.221 315.166C308.65 312.594 321.596 261.478 322.054 258.306C322.382 255.962 330.728 255.448 337.672 255.448C337.861 255.452 338.04 255.528 338.174 255.661C338.307 255.794 338.383 255.974 338.387 256.162C338.387 256.352 338.312 256.534 338.178 256.668C338.044 256.802 337.862 256.877 337.672 256.877C330.527 256.877 323.997 257.634 323.382 258.535C323.382 258.892 310.236 312.565 308.407 315.852C308.149 316.309 307.764 316.952 307.306 317.724C304.977 321.653 300.647 328.956 299.604 334.657C298.446 341.016 291.444 372.14 290.244 377.413L297.832 378.485C299.861 374.012 315.151 340.173 316.609 334.057C318.167 327.484 320.382 314.866 320.41 314.737C320.404 314.675 320.404 314.613 320.41 314.551C328.541 298.032 340.545 272.51 340.33 269.866C340.179 267.77 339.766 265.701 339.101 263.708C339.069 263.619 339.054 263.525 339.057 263.431C339.06 263.337 339.082 263.245 339.121 263.159C339.2 262.986 339.345 262.852 339.523 262.786C339.701 262.719 339.898 262.727 340.071 262.806C340.244 262.885 340.378 263.029 340.445 263.207C341.153 265.326 341.594 267.524 341.759 269.752C342.074 273.61 324.026 310.436 321.753 315.094C321.539 316.295 319.453 328.084 317.952 334.386C316.366 341.031 299.59 377.999 298.875 379.571C298.827 379.684 298.751 379.783 298.653 379.858C298.555 379.934 298.44 379.982 298.318 379.999V379.999Z" fill="#263238"/>
<path d="M197.345 519.012C197.345 518.006 197.046 517.023 196.487 516.186C195.928 515.35 195.134 514.698 194.204 514.312C193.275 513.927 192.252 513.827 191.265 514.023C190.278 514.219 189.372 514.704 188.66 515.415C187.949 516.127 187.464 517.033 187.268 518.02C187.072 519.007 187.172 520.03 187.558 520.959C187.943 521.889 188.595 522.683 189.431 523.242C190.268 523.801 191.251 524.1 192.258 524.1C193.607 524.1 194.901 523.564 195.855 522.61C196.809 521.656 197.345 520.362 197.345 519.012V519.012Z" fill="#263238"/>
<path d="M192.258 524.871C191.106 524.874 189.98 524.535 189.021 523.897C188.062 523.259 187.315 522.351 186.873 521.288C186.431 520.224 186.314 519.054 186.538 517.924C186.762 516.795 187.316 515.757 188.131 514.943C188.945 514.129 189.983 513.574 191.112 513.35C192.242 513.126 193.412 513.243 194.476 513.685C195.539 514.127 196.447 514.874 197.085 515.833C197.723 516.792 198.062 517.918 198.059 519.07C198.059 520.608 197.448 522.084 196.36 523.172C195.272 524.26 193.796 524.871 192.258 524.871V524.871ZM192.258 514.683C191.389 514.68 190.54 514.935 189.816 515.415C189.093 515.895 188.528 516.579 188.194 517.381C187.86 518.182 187.771 519.065 187.939 519.917C188.106 520.769 188.523 521.552 189.136 522.167C189.749 522.782 190.531 523.201 191.382 523.371C192.233 523.542 193.116 523.456 193.919 523.124C194.721 522.792 195.407 522.23 195.89 521.508C196.373 520.787 196.63 519.938 196.63 519.07C196.638 518.49 196.53 517.914 196.314 517.377C196.098 516.839 195.777 516.349 195.371 515.936C194.964 515.522 194.48 515.194 193.945 514.969C193.411 514.744 192.837 514.627 192.258 514.625V514.683Z" fill="#263238"/>
<path d="M198.96 519.155C198.675 519.156 198.396 519.071 198.159 518.912C198.003 518.807 197.87 518.673 197.766 518.516C197.662 518.359 197.59 518.184 197.554 517.999C197.518 517.815 197.519 517.625 197.557 517.441C197.595 517.257 197.668 517.082 197.773 516.926L273.01 406.093C273.223 405.778 273.551 405.561 273.924 405.489C274.296 405.416 274.682 405.495 274.997 405.707C275.311 405.919 275.529 406.248 275.601 406.62C275.673 406.993 275.595 407.379 275.382 407.693L200.146 518.527C200.015 518.721 199.838 518.879 199.631 518.989C199.424 519.099 199.194 519.156 198.96 519.155Z" fill="#263238"/>
<path d="M274.196 409.694C273.616 409.689 273.05 409.515 272.567 409.194C272.257 408.981 271.992 408.708 271.787 408.392C271.582 408.076 271.442 407.722 271.374 407.352C271.306 406.981 271.312 406.601 271.392 406.233C271.472 405.865 271.624 405.516 271.838 405.207L283.842 387.759C284.272 387.134 284.933 386.705 285.68 386.567C286.426 386.429 287.196 386.593 287.822 387.023C288.447 387.453 288.876 388.114 289.014 388.86C289.152 389.607 288.988 390.377 288.558 391.003L276.554 408.451C276.292 408.834 275.94 409.148 275.529 409.364C275.118 409.581 274.661 409.694 274.196 409.694V409.694Z" fill="#263238"/>
<path d="M235.445 448.5L213.196 433.088C210.945 431.529 207.856 432.09 206.297 434.341L167.54 490.292C165.98 492.543 166.541 495.632 168.792 497.192L191.041 512.603C193.292 514.163 196.382 513.602 197.941 511.351L236.698 455.4C238.257 453.148 237.696 450.059 235.445 448.5Z" fill="#263238"/>
<path d="M193.815 514.182C192.667 514.179 191.547 513.831 190.6 513.182L168.336 497.72C167.111 496.856 166.274 495.544 166.007 494.069C165.74 492.593 166.063 491.072 166.907 489.832L205.676 433.873C206.54 432.647 207.852 431.811 209.327 431.544C210.803 431.276 212.324 431.6 213.564 432.444L235.813 447.863C237.039 448.727 237.875 450.039 238.143 451.514C238.41 452.99 238.087 454.511 237.242 455.751L198.474 511.71C197.953 512.466 197.257 513.085 196.447 513.516C195.636 513.946 194.733 514.175 193.815 514.182ZM191.414 512.01C192.341 512.64 193.478 512.883 194.581 512.685C195.684 512.487 196.666 511.866 197.316 510.953L236.028 454.979C236.656 454.051 236.896 452.913 236.696 451.809C236.496 450.706 235.871 449.725 234.956 449.077L212.707 433.658C211.778 433.03 210.64 432.79 209.537 432.99C208.434 433.191 207.453 433.815 206.805 434.73L168.05 490.69C167.726 491.144 167.498 491.66 167.38 492.205C167.262 492.751 167.257 493.314 167.364 493.862C167.459 494.408 167.663 494.929 167.962 495.396C168.261 495.862 168.651 496.264 169.108 496.577L191.414 512.01Z" fill="#263238"/>
<path d="M188.623 432.653L203.668 443.111L169.303 492.549L155.769 483.141C154.215 482.061 153.154 480.408 152.819 478.545C152.484 476.683 152.903 474.763 153.983 473.209L181.335 433.861C182.126 432.724 183.336 431.947 184.699 431.702C186.062 431.457 187.467 431.763 188.605 432.554L188.623 432.653Z" fill="#263238"/>
<path d="M170.122 494.277C169.974 494.276 169.83 494.231 169.708 494.148L156.147 484.745C154.449 483.567 153.287 481.763 152.917 479.73C152.548 477.696 153 475.599 154.175 473.899L181.497 434.459C182.4 433.164 183.779 432.28 185.332 431.999C186.885 431.718 188.486 432.063 189.785 432.958L204.861 443.418C205.017 443.528 205.123 443.694 205.158 443.881C205.192 444.068 205.153 444.261 205.047 444.419L170.751 493.976C170.681 494.076 170.586 494.156 170.476 494.208C170.366 494.261 170.244 494.284 170.122 494.277ZM186.399 433.33C185.669 433.33 184.949 433.507 184.303 433.846C183.656 434.184 183.1 434.674 182.683 435.273L155.346 474.728C154.388 476.115 154.019 477.826 154.322 479.485C154.625 481.144 155.574 482.614 156.961 483.573L169.937 492.562L203.461 444.176L188.971 434.173C188.22 433.635 187.322 433.341 186.399 433.33V433.33Z" fill="#263238"/>
<path d="M191.73 434.725L206.776 445.184L172.411 494.621L158.912 485.238C157.358 484.158 156.297 482.505 155.962 480.642C155.627 478.779 156.046 476.86 157.126 475.306L184.437 436.016C184.83 435.451 185.331 434.969 185.91 434.598C186.49 434.227 187.137 433.975 187.815 433.855C188.493 433.735 189.188 433.75 189.86 433.899C190.532 434.049 191.167 434.329 191.73 434.725Z" fill="#FFC100"/>
<path d="M173.152 496.406C173.004 496.405 172.86 496.36 172.737 496.277L159.176 486.874C157.479 485.699 156.318 483.898 155.948 481.867C155.578 479.835 156.03 477.741 157.204 476.042L184.584 436.602C185.027 435.959 185.593 435.409 186.25 434.985C186.906 434.561 187.64 434.271 188.409 434.132C189.178 433.992 189.967 434.006 190.73 434.173C191.494 434.339 192.217 434.655 192.858 435.102L207.948 445.548C208.104 445.655 208.211 445.819 208.248 446.005C208.263 446.097 208.259 446.191 208.237 446.282C208.215 446.373 208.175 446.459 208.119 446.534L173.823 496.106C173.712 496.255 173.549 496.357 173.366 496.391L173.152 496.406ZM189.428 435.473C188.695 435.47 187.973 435.646 187.323 435.984C186.673 436.323 186.116 436.814 185.698 437.417L158.433 476.857C157.957 477.543 157.62 478.317 157.444 479.133C157.267 479.95 157.253 480.793 157.403 481.615C157.553 482.437 157.864 483.221 158.318 483.923C158.772 484.624 159.36 485.229 160.048 485.703V485.703L173.023 494.705L206.548 446.276L192.043 436.273C191.293 435.75 190.4 435.47 189.485 435.473H189.428Z" fill="#263238"/>
<path d="M194.001 436.745L178.482 457.823C178.348 458.005 178.252 458.211 178.198 458.43C178.145 458.65 178.135 458.877 178.169 459.1C178.204 459.323 178.282 459.537 178.399 459.73C178.517 459.923 178.671 460.09 178.854 460.223L182.626 463.01C182.808 463.144 183.014 463.24 183.234 463.294C183.453 463.347 183.681 463.357 183.904 463.323C184.127 463.288 184.341 463.21 184.533 463.093C184.726 462.975 184.894 462.821 185.027 462.638L200.674 441.375L194.001 436.745Z" fill="#263238"/>
<path d="M238.958 450.938L216.709 435.527C214.458 433.968 211.369 434.528 209.81 436.78L171.053 492.731C169.494 494.982 170.054 498.071 172.306 499.63L194.554 515.042C196.806 516.601 199.895 516.04 201.454 513.789L240.211 457.838C241.77 455.587 241.21 452.498 238.958 450.938Z" fill="#FFC100"/>
<path d="M197.345 516.626C196.197 516.623 195.077 516.274 194.13 515.626L171.866 500.207C170.64 499.342 169.804 498.031 169.537 496.555C169.269 495.08 169.593 493.558 170.437 492.319L209.205 436.359C209.626 435.745 210.165 435.221 210.79 434.819C211.416 434.416 212.116 434.143 212.849 434.016C213.589 433.866 214.35 433.87 215.088 434.027C215.825 434.185 216.523 434.492 217.136 434.93L239.4 450.349C240.626 451.214 241.462 452.525 241.729 454.001C241.997 455.476 241.673 456.998 240.829 458.237L202.06 514.182C201.531 514.941 200.825 515.56 200.004 515.985C199.182 516.411 198.27 516.631 197.345 516.626V516.626ZM194.944 514.44C195.871 515.064 197.006 515.301 198.106 515.101C199.206 514.901 200.184 514.279 200.832 513.368L239.6 457.408C240.225 456.481 240.462 455.346 240.262 454.247C240.061 453.147 239.44 452.169 238.529 451.521L216.279 436.102C215.351 435.473 214.213 435.233 213.109 435.434C212.006 435.634 211.025 436.259 210.377 437.174L171.608 493.133C170.984 494.061 170.747 495.195 170.947 496.295C171.147 497.395 171.769 498.373 172.68 499.021L194.944 514.44Z" fill="#263238"/>
<path d="M194.401 509.624L190.657 520.07L192.529 521.142L199.488 512.839L194.401 509.624Z" fill="white"/>
<path d="M192.529 521.87C192.404 521.866 192.281 521.832 192.172 521.77L190.3 520.699C190.153 520.617 190.041 520.486 189.984 520.328C189.926 520.171 189.927 519.998 189.985 519.841L193.729 509.381C193.767 509.282 193.827 509.192 193.903 509.118C193.98 509.043 194.072 508.987 194.172 508.952C194.274 508.917 194.381 508.906 194.488 508.918C194.594 508.93 194.696 508.967 194.787 509.024L199.874 512.239C199.96 512.292 200.034 512.363 200.091 512.447C200.147 512.53 200.185 512.625 200.203 512.725C200.218 512.826 200.212 512.929 200.185 513.027C200.158 513.126 200.11 513.218 200.046 513.296L193.072 521.613C193.004 521.691 192.921 521.754 192.827 521.798C192.734 521.842 192.632 521.867 192.529 521.87V521.87ZM191.529 519.756L192.358 520.227L198.417 513.011L194.773 510.71L191.529 519.756Z" fill="#263238"/>
<path d="M224.596 440.961L207.291 464.167C207.001 464.556 206.878 465.044 206.947 465.523C207.017 466.003 207.274 466.435 207.662 466.725L211.235 469.398C211.625 469.683 212.111 469.805 212.59 469.735C213.068 469.666 213.5 469.411 213.793 469.026L231.283 445.59L224.596 440.961Z" fill="#263238"/>
<path d="M211.795 482.065L196.723 471.254C194.78 469.86 192.075 470.306 190.681 472.249L179.162 488.308C177.769 490.251 178.214 492.956 180.157 494.35L195.229 505.161C197.173 506.555 199.878 506.109 201.271 504.166L212.79 488.107C214.184 486.164 213.738 483.458 211.795 482.065Z" fill="#263238"/>
<path d="M197.702 506.68C196.651 506.677 195.628 506.347 194.773 505.737L179.697 494.862C179.158 494.476 178.7 493.987 178.35 493.424C178 492.861 177.765 492.234 177.657 491.58C177.55 490.926 177.572 490.256 177.724 489.611C177.875 488.965 178.152 488.356 178.539 487.817L190.057 471.77C190.442 471.231 190.929 470.774 191.491 470.424C192.053 470.074 192.679 469.839 193.332 469.732C193.985 469.624 194.653 469.646 195.298 469.798C195.942 469.949 196.55 470.226 197.088 470.612L212.163 481.416C213.249 482.198 213.98 483.379 214.197 484.699C214.414 486.019 214.099 487.372 213.321 488.46L201.803 504.522C201.343 505.185 200.73 505.726 200.016 506.102C199.302 506.477 198.509 506.676 197.702 506.68V506.68ZM195.601 504.565C195.986 504.844 196.423 505.043 196.885 505.153C197.348 505.262 197.827 505.278 198.296 505.201C198.765 505.124 199.214 504.955 199.617 504.704C200.021 504.452 200.37 504.124 200.646 503.736L212.163 487.717C212.719 486.937 212.943 485.969 212.788 485.025C212.632 484.08 212.11 483.235 211.335 482.673L196.259 471.856C195.479 471.3 194.511 471.076 193.566 471.231C192.621 471.387 191.776 471.909 191.214 472.684L179.697 488.746C179.142 489.526 178.917 490.494 179.072 491.439C179.228 492.384 179.75 493.229 180.525 493.791L195.601 504.565Z" fill="#263238"/>
<path d="M213.489 483.758L198.417 472.947C196.474 471.553 193.768 471.999 192.375 473.942L180.856 490.001C179.462 491.944 179.908 494.649 181.851 496.043L196.923 506.854C198.866 508.248 201.571 507.802 202.965 505.859L214.484 489.8C215.878 487.856 215.432 485.151 213.489 483.758Z" fill="#FFC100"/>
<path d="M199.388 508.366C198.337 508.37 197.311 508.039 196.459 507.423L181.383 496.62C180.845 496.233 180.388 495.743 180.04 495.179C179.692 494.615 179.459 493.988 179.354 493.333C179.24 492.68 179.258 492.011 179.408 491.366C179.558 490.72 179.836 490.111 180.225 489.575L191.729 473.513C192.514 472.431 193.694 471.702 195.013 471.485C196.332 471.269 197.684 471.581 198.774 472.356L213.835 483.173C214.923 483.953 215.657 485.133 215.877 486.454C216.096 487.774 215.784 489.128 215.007 490.218L203.504 506.294C203.031 506.941 202.411 507.466 201.696 507.826C200.98 508.186 200.189 508.372 199.388 508.366ZM197.288 506.294C198.068 506.849 199.036 507.074 199.98 506.919C200.925 506.763 201.77 506.241 202.332 505.466L213.85 489.404C214.128 489.019 214.328 488.582 214.437 488.12C214.546 487.657 214.563 487.178 214.486 486.709C214.409 486.24 214.239 485.791 213.988 485.388C213.737 484.984 213.408 484.635 213.021 484.359L197.959 473.556C197.574 473.275 197.137 473.073 196.674 472.963C196.21 472.852 195.729 472.835 195.258 472.913C194.315 473.061 193.468 473.574 192.901 474.342L181.383 490.39C181.105 490.775 180.906 491.212 180.798 491.676C180.69 492.139 180.675 492.618 180.753 493.087C180.832 493.556 181.002 494.005 181.255 494.408C181.508 494.811 181.838 495.159 182.226 495.434L197.288 506.294Z" fill="#263238"/>
</svg>
